<svg width="50" height="49" viewBox="0 0 50 49" fill="none" xmlns="http://www.w3.org/2000/svg">
<circle cx="24.9527" cy="24.347" r="24.2744" fill="#A57AFF"/>
<g clip-path="url(#clip0_224_5)">
<path d="M24.9526 38.7319C32.8971 38.7319 39.3375 32.2916 39.3375 24.347C39.3375 16.4025 32.8971 9.96216 24.9526 9.96216C17.0081 9.96216 10.5677 16.4025 10.5677 24.347C10.5677 32.2916 17.0081 38.7319 24.9526 38.7319Z" fill="#7C51D7"/>
<path d="M24.9526 35.1357C30.911 35.1357 35.7413 30.3054 35.7413 24.347C35.7413 18.3886 30.911 13.5584 24.9526 13.5584C18.9942 13.5584 14.164 18.3886 14.164 24.347C14.164 30.3054 18.9942 35.1357 24.9526 35.1357Z" fill="white"/>
<path d="M24.9526 32.3386C29.3662 32.3386 32.9442 28.7606 32.9442 24.347C32.9442 19.9334 29.3662 16.3554 24.9526 16.3554C20.539 16.3554 16.961 19.9334 16.961 24.347C16.961 28.7606 20.539 32.3386 24.9526 32.3386Z" fill="#7C51D7"/>
<path d="M24.9526 29.142C27.6008 29.142 29.7476 26.9952 29.7476 24.347C29.7476 21.6988 27.6008 19.5521 24.9526 19.5521C22.3044 19.5521 20.1577 21.6988 20.1577 24.347C20.1577 26.9952 22.3044 29.142 24.9526 29.142Z" fill="white"/>
<path d="M24.9526 26.7445C26.2767 26.7445 27.3501 25.6711 27.3501 24.347C27.3501 23.0229 26.2767 21.9495 24.9526 21.9495C23.6285 21.9495 22.5551 23.0229 22.5551 24.347C22.5551 25.6711 23.6285 26.7445 24.9526 26.7445Z" fill="#7C51D7"/>
<path opacity="0.2" d="M25.1444 24.5724L35.6485 33.9657C35.6485 33.9657 33.5332 36.6636 29.3432 38.0486L24.6161 24.6827L25.1444 24.5724Z" fill="black"/>
<path d="M25.1876 25.1462C25.03 25.1467 24.8759 25.1004 24.7447 25.0131C24.6136 24.9258 24.5114 24.8014 24.4511 24.6559C24.3908 24.5104 24.3751 24.3502 24.4061 24.1957C24.437 24.0412 24.5132 23.8995 24.6249 23.7884L25.0749 23.3385C25.224 23.1893 25.4263 23.1054 25.6372 23.1053C25.8481 23.1052 26.0505 23.189 26.1997 23.3381C26.3489 23.4872 26.4328 23.6895 26.4328 23.9004C26.4329 24.1113 26.3492 24.3137 26.2001 24.4629L25.7494 24.9128C25.6758 24.987 25.5883 25.0458 25.4919 25.0858C25.3954 25.1259 25.292 25.1464 25.1876 25.1462Z" fill="#FFAC33"/>
<path d="M29.7604 15.5411C29.4383 17.2025 29.7604 19.2899 29.7604 19.2899L35.3976 13.3858C35.6302 12.2238 34.9757 10.2435 34.0247 9.99892C33.0737 9.75438 30.7649 10.6406 29.7604 15.5411ZM33.7585 19.5393C32.0971 19.8613 30.0097 19.5393 30.0097 19.5393L35.9139 13.902C37.0759 13.6695 39.0562 14.324 39.3007 15.275C39.5453 16.226 38.659 18.5347 33.7585 19.5393Z" fill="#C994FF"/>
<path d="M36.7786 13.5464L27.4907 24.017C27.2014 24.3063 26.1537 24.7218 25.4848 24.0537C24.8167 23.3856 25.15 22.3915 25.4393 22.1014L35.993 12.76C35.993 12.76 36.5332 12.2526 36.9192 12.6385C37.3052 13.0245 36.7786 13.5464 36.7786 13.5464Z" fill="#3F2576"/>
</g>
<defs>
<clipPath id="clip0_224_5">
<path d="M10.5677 19.9622C10.5677 14.4393 15.0449 9.96216 20.5677 9.96216H39.3375V28.7319C39.3375 34.2547 34.8603 38.7319 29.3375 38.7319H20.5677C15.0449 38.7319 10.5677 34.2547 10.5677 28.7319V19.9622Z" fill="white"/>
</clipPath>
</defs>
</svg>
