<svg width="402" height="402" viewBox="0 0 402 402" fill="none" xmlns="http://www.w3.org/2000/svg">
<path d="M102.799 313.355C78.9729 312.551 56.6539 301.002 42.6844 281.677C35.778 272.114 30.7369 260.464 30.9982 246.933C31.8022 205.301 46.435 204.69 48.035 170.263C49.6349 135.836 16.884 117.167 22.4798 79.5397C28.0757 41.9125 60.3523 41.4261 79.5116 42.0814C116.178 43.3356 135.707 89.8993 187.734 98.7071C239.761 107.515 282.039 78.39 310.416 89.7626C335.369 99.7684 362.733 132.499 352.152 162.597C341.571 192.695 332.494 208.333 335.698 221.14C338.902 233.948 365.418 252.496 341.077 290.381C310.416 338.082 167.582 315.57 102.799 313.355Z" fill="#ECE3F5"/>
<path d="M50.9173 238.848C53.9444 238.583 56.6016 240.834 56.6016 240.834C56.6016 240.834 54.3544 243.516 51.3274 243.781C48.3003 244.046 45.6431 241.795 45.6431 241.795C45.6431 241.795 47.8903 239.114 50.9173 238.848ZM56.0308 244.042C59.0578 243.777 61.715 246.028 61.715 246.028C61.715 246.028 59.4679 248.709 56.4408 248.975C53.4137 249.24 50.7565 246.965 50.7565 246.965C50.7565 246.965 53.0037 244.307 56.0308 244.042ZM59.4357 249.642C62.2859 248.609 65.4898 250.084 65.4898 250.084C65.4898 250.084 64.0708 253.236 61.2206 254.269C58.3704 255.302 55.1665 253.827 55.1665 253.827C55.1665 253.827 56.5855 250.667 59.4357 249.642ZM64.5773 255.133C66.8647 254.301 69.4375 255.487 69.4375 255.487C69.4375 255.487 68.2998 258.02 66.0084 258.848C63.717 259.676 61.1482 258.49 61.1482 258.49C61.1482 258.49 62.31 255.961 64.5773 255.133ZM68.7179 260.737C71.0053 259.909 73.5781 261.095 73.5781 261.095C73.5781 261.095 72.4404 263.624 70.149 264.452C67.8576 265.28 65.2888 264.098 65.2888 264.098C65.2888 264.098 66.4305 261.565 68.7179 260.737ZM57.486 232.81C57.8317 235.693 55.5403 238.342 55.5403 238.342C55.5403 238.342 52.6901 236.332 52.3243 233.433C51.9585 230.535 54.27 227.902 54.27 227.902C54.27 227.902 57.1202 229.944 57.486 232.81ZM63.0055 237.771C62.5391 240.645 59.6045 242.623 59.6045 242.623C59.6045 242.623 57.4257 239.938 57.892 237.063C58.3583 234.189 61.297 232.207 61.297 232.207C61.297 232.207 63.4718 234.893 63.0055 237.771ZM68.4083 243.254C67.942 246.133 65.0074 248.11 65.0074 248.11C65.0074 248.11 62.8286 245.425 63.2949 242.551C63.7612 239.676 66.6998 237.695 66.6998 237.695C66.6998 237.695 68.8787 240.396 68.4083 243.254ZM73.5258 249.554C72.0665 252.118 68.6134 253.031 68.6134 253.031C68.6134 253.031 67.528 249.787 68.9872 247.222C70.4465 244.657 73.8997 243.749 73.8997 243.749C73.8997 243.749 74.9851 246.993 73.5258 249.554ZM77.6584 255.728C75.7448 258.008 72.1831 258.313 72.1831 258.313C72.1831 258.313 71.7289 254.928 73.6424 252.649C75.5559 250.37 79.1176 250.068 79.1176 250.068C79.1176 250.068 79.5719 253.453 77.6584 255.728Z" fill="#CEA6F8"/>
<path d="M74.5589 263.342C74.5131 263.385 74.4593 263.417 74.4006 263.439C74.3419 263.46 74.2796 263.47 74.2172 263.467C74.0572 263.46 73.9036 263.402 73.7796 263.3C73.6556 263.199 73.568 263.06 73.5298 262.904C73.5298 262.824 72.1148 256.564 62.7643 246.852C53.2891 237.015 45.6953 232.099 45.619 232.05C45.4795 231.977 45.3732 231.852 45.3218 231.703C45.2703 231.554 45.2774 231.391 45.3416 231.246C45.3844 231.187 45.439 231.136 45.5021 231.098C45.5651 231.06 45.6352 231.035 45.7082 231.025C45.7812 231.014 45.8554 231.019 45.9265 231.039C45.9975 231.058 46.0639 231.092 46.1215 231.138C46.1978 231.186 53.9363 236.191 63.5482 246.173C73.2404 256.223 74.6232 262.631 74.6755 262.896C74.6986 262.974 74.6999 263.057 74.6793 263.135C74.6588 263.214 74.6172 263.285 74.5589 263.342Z" fill="#CEA6F8"/>
<path d="M48.4892 230.648C50.7967 232.513 50.9816 235.922 50.9816 235.922C50.9816 235.922 47.432 236.324 45.1245 234.446C42.817 232.569 42.612 229.172 42.612 229.172C42.612 229.172 46.1818 228.782 48.4892 230.648Z" fill="#CEA6F8"/>
<path d="M93.6137 305.387C93.6137 305.387 96.3393 282.875 73.0072 279.338C49.6751 275.8 40.2844 287.068 40.2844 287.068C40.2844 287.068 59.6809 326.826 93.6137 305.387Z" fill="#D0A8FA"/>
<path d="M102.51 313.375C102.563 313.35 102.613 313.319 102.659 313.283C102.728 313.231 102.786 313.166 102.829 313.091C102.873 313.016 102.9 312.933 102.91 312.848C102.921 312.762 102.913 312.675 102.888 312.592C102.864 312.509 102.823 312.432 102.767 312.366C92.058 299.707 58.3262 288.455 56.8951 287.985C56.7264 287.928 56.5423 287.938 56.3808 288.013C56.2192 288.087 56.0925 288.221 56.0267 288.387C55.9965 288.467 55.983 288.553 55.987 288.639C55.9911 288.725 56.0125 288.81 56.0501 288.887C56.0877 288.964 56.1407 289.033 56.2058 289.09C56.2708 289.146 56.3467 289.189 56.4287 289.215C56.7745 289.327 91.2379 300.817 101.71 313.198C101.807 313.309 101.937 313.386 102.081 313.418C102.225 313.45 102.375 313.435 102.51 313.375ZM92.1062 293.082C89.7706 287.169 84.5848 280.978 73.2565 279.253C69.8162 278.713 66.3337 278.49 62.8527 278.586C67.134 287.145 75.6966 296.519 92.1062 293.082Z" fill="#A671DE"/>
<path d="M94.068 290.517C94.068 290.517 101.376 274.461 84.8984 266.345C68.4204 258.229 58.8005 264.395 58.8005 264.395C58.8005 264.395 63.8577 298.465 94.068 290.517Z" fill="#B68FDF"/>
<path d="M98.8035 298.533C98.849 298.528 98.8936 298.517 98.9362 298.501C98.9993 298.478 99.0571 298.443 99.1062 298.398C99.1554 298.352 99.1948 298.297 99.2222 298.236C99.2496 298.175 99.2644 298.109 99.2657 298.042C99.267 297.975 99.2547 297.908 99.2297 297.846C94.2569 285.935 71.8696 269.662 70.9208 268.974C70.8071 268.894 70.6672 268.859 70.5292 268.878C70.3912 268.897 70.2654 268.967 70.1771 269.075C70.1361 269.127 70.1061 269.188 70.0891 269.253C70.072 269.317 70.0683 269.385 70.0781 269.451C70.0878 269.517 70.1109 269.58 70.1459 269.637C70.1809 269.694 70.2271 269.744 70.2817 269.782C70.5148 269.947 93.3846 286.57 98.2488 298.216C98.2952 298.321 98.3741 298.408 98.474 298.466C98.5738 298.523 98.6893 298.546 98.8035 298.533Z" fill="#A671DE"/>
<path d="M222.407 223.243L120.701 223.854C118.775 223.854 117.203 222.483 117.191 220.766L116.492 75.1458C116.492 73.4253 118.039 72.0223 119.969 72.0103L202.608 71.5158C205.046 71.4856 207.412 72.3428 209.265 73.9278L222.447 85.429C223.313 86.1635 224.012 87.0747 224.498 88.1015C224.983 89.1283 225.243 90.247 225.261 91.3826L225.868 220.127C225.892 221.828 224.336 223.231 222.407 223.243Z" fill="#9E51EF"/>
<path d="M218.616 226.278L116.91 226.889C114.98 226.889 113.408 225.518 113.396 223.801L112.701 78.1809C112.701 76.4604 114.244 75.0574 116.174 75.0494L198.833 74.5509C201.271 74.5207 203.637 75.3779 205.49 76.9629L218.656 88.44C219.521 89.1755 220.219 90.0869 220.705 91.1135C221.19 92.1401 221.451 93.2583 221.47 94.3936L222.073 223.138C222.097 224.867 220.541 226.266 218.616 226.278Z" fill="#CFA7F9"/>
<path d="M221.502 94.4017C221.483 93.2663 221.222 92.1481 220.737 91.1215C220.251 90.0949 219.553 89.1835 218.688 88.448L205.506 76.9468C203.976 75.6414 202.085 74.8312 200.083 74.6233L200.144 95.8127C200.136 96.0605 200.227 96.3011 200.397 96.482C200.566 96.6628 200.8 96.7691 201.048 96.7775L221.502 96.7212V94.4017Z" fill="url(#paint0_linear_187_2354)"/>
<path d="M207.959 92.0781C207.329 91.4617 206.97 90.6209 206.959 89.74C206.949 88.8592 207.288 88.01 207.902 87.3787L217.631 77.4212C218.059 76.9822 218.57 76.6319 219.134 76.3903C219.697 76.1487 220.303 76.0205 220.917 76.0131C221.53 76.0056 222.139 76.119 222.708 76.3468C223.278 76.5746 223.797 76.9124 224.236 77.3408C224.675 77.7692 225.025 78.2799 225.266 78.8436C225.508 79.4074 225.636 80.0132 225.644 80.6266C225.651 81.2399 225.538 81.8487 225.31 82.4182C225.082 82.9876 224.744 83.5067 224.316 83.9456L219.279 89.1033C219.19 89.1819 219.075 89.224 218.956 89.221C218.837 89.2181 218.724 89.1704 218.639 89.0874C218.554 89.0045 218.504 88.8925 218.498 88.7739C218.492 88.6553 218.531 88.5389 218.608 88.448L223.649 83.2944C224.342 82.5859 224.725 81.6312 224.714 80.6402C224.703 79.6492 224.299 78.7031 223.59 78.0101C222.882 77.3171 221.927 76.9339 220.936 76.9448C219.945 76.9558 218.999 77.3599 218.306 78.0684L208.574 88.038C208.221 88.5062 208.051 89.0869 208.095 89.6714C208.139 90.256 208.395 90.8045 208.814 91.2143C209.233 91.6242 209.787 91.8673 210.372 91.8983C210.958 91.9293 211.535 91.746 211.995 91.3826L219.367 83.8331C219.535 83.6609 219.627 83.4293 219.624 83.1892C219.62 82.949 219.521 82.7201 219.349 82.5527C219.177 82.3853 218.945 82.2932 218.705 82.2966C218.465 82.3 218.236 82.3986 218.069 82.5708L213.43 87.3184C213.343 87.4039 213.226 87.4519 213.104 87.4521C212.982 87.4523 212.865 87.4047 212.777 87.3195C212.69 87.2343 212.64 87.1183 212.637 86.9964C212.634 86.8744 212.679 86.7563 212.763 86.6672L217.402 81.9155C217.746 81.5792 218.207 81.3908 218.689 81.3906C219.17 81.3905 219.632 81.5787 219.976 81.9149C220.32 82.2511 220.519 82.7086 220.53 83.1896C220.541 83.6706 220.363 84.1367 220.035 84.4883L212.658 92.0258C212.041 92.6546 211.2 93.0132 210.319 93.023C209.438 93.0328 208.589 92.693 207.959 92.0781Z" fill="#8108FF"/>
<path d="M188.94 87.6078H122.907C122.404 87.6078 121.922 87.4079 121.566 87.0521C121.21 86.6963 121.01 86.2136 121.01 85.7104C121.01 85.4614 121.059 85.2149 121.155 84.9849C121.25 84.7549 121.39 84.546 121.566 84.3701C121.742 84.1943 121.951 84.0549 122.182 83.96C122.412 83.865 122.659 83.8165 122.907 83.817H188.94C189.189 83.8165 189.436 83.865 189.666 83.96C189.896 84.0549 190.105 84.1943 190.281 84.3701C190.458 84.546 190.598 84.7549 190.693 84.9849C190.788 85.2149 190.837 85.4614 190.837 85.7104C190.837 86.2136 190.638 86.6963 190.282 87.0521C189.926 87.4079 189.443 87.6078 188.94 87.6078ZM188.538 96.3353H122.526C122.022 96.3353 121.54 96.1354 121.184 95.7795C120.828 95.4237 120.628 94.9411 120.628 94.4378C120.629 93.9349 120.829 93.4529 121.185 93.0973C121.541 92.7417 122.023 92.5415 122.526 92.5404H188.538C189.041 92.5415 189.523 92.7417 189.879 93.0973C190.234 93.4529 190.434 93.9349 190.435 94.4378C190.435 94.9411 190.236 95.4237 189.88 95.7795C189.524 96.1354 189.041 96.3353 188.538 96.3353ZM210.937 105.063H122.148C121.899 105.063 121.652 105.014 121.422 104.918C121.191 104.823 120.982 104.683 120.806 104.507C120.63 104.331 120.49 104.122 120.395 103.891C120.299 103.661 120.25 103.414 120.25 103.165C120.25 102.662 120.45 102.179 120.806 101.824C121.162 101.468 121.644 101.268 122.148 101.268H210.937C211.44 101.269 211.922 101.469 212.278 101.825C212.634 102.18 212.834 102.662 212.835 103.165C212.835 103.414 212.786 103.661 212.69 103.891C212.595 104.122 212.455 104.331 212.279 104.507C212.103 104.683 211.894 104.823 211.664 104.918C211.433 105.014 211.187 105.063 210.937 105.063ZM210.937 113.79H122.148C121.899 113.79 121.652 113.741 121.422 113.646C121.191 113.55 120.982 113.411 120.806 113.234C120.63 113.058 120.49 112.849 120.395 112.619C120.299 112.389 120.25 112.142 120.25 111.893C120.25 111.389 120.45 110.907 120.806 110.551C121.162 110.195 121.644 109.995 122.148 109.995H210.937C211.44 109.996 211.922 110.197 212.278 110.552C212.634 110.908 212.834 111.39 212.835 111.893C212.835 112.142 212.786 112.389 212.69 112.619C212.595 112.849 212.455 113.058 212.279 113.234C212.103 113.411 211.894 113.55 211.664 113.646C211.433 113.741 211.187 113.79 210.937 113.79ZM210.937 122.518H122.148C121.644 122.518 121.162 122.318 120.806 121.962C120.45 121.606 120.25 121.123 120.25 120.62C120.25 120.117 120.45 119.634 120.806 119.278C121.162 118.923 121.644 118.723 122.148 118.723H210.937C211.44 118.724 211.922 118.924 212.278 119.28C212.634 119.635 212.834 120.117 212.835 120.62C212.835 120.869 212.786 121.116 212.69 121.346C212.595 121.576 212.455 121.786 212.279 121.962C212.103 122.138 211.894 122.278 211.664 122.373C211.433 122.468 211.187 122.518 210.937 122.518ZM210.937 131.245H122.148C121.644 131.245 121.162 131.045 120.806 130.689C120.45 130.333 120.25 129.851 120.25 129.348C120.25 129.098 120.299 128.852 120.395 128.621C120.49 128.391 120.63 128.182 120.806 128.006C120.982 127.83 121.191 127.69 121.422 127.595C121.652 127.499 121.899 127.45 122.148 127.45H210.937C211.187 127.45 211.433 127.499 211.664 127.595C211.894 127.69 212.103 127.83 212.279 128.006C212.455 128.182 212.595 128.391 212.69 128.621C212.786 128.852 212.835 129.098 212.835 129.348C212.835 129.597 212.786 129.843 212.69 130.074C212.595 130.304 212.455 130.513 212.279 130.689C212.103 130.865 211.894 131.005 211.664 131.101C211.433 131.196 211.187 131.245 210.937 131.245ZM210.937 139.972H122.148C121.644 139.972 121.162 139.772 120.806 139.417C120.45 139.061 120.25 138.578 120.25 138.075C120.25 137.826 120.299 137.579 120.395 137.349C120.49 137.119 120.63 136.909 120.806 136.733C120.982 136.557 121.191 136.417 121.422 136.322C121.652 136.227 121.899 136.177 122.148 136.177H210.937C211.187 136.177 211.433 136.227 211.664 136.322C211.894 136.417 212.103 136.557 212.279 136.733C212.455 136.909 212.595 137.119 212.69 137.349C212.786 137.579 212.835 137.826 212.835 138.075C212.835 138.324 212.786 138.571 212.69 138.801C212.595 139.031 212.455 139.24 212.279 139.417C212.103 139.593 211.894 139.733 211.664 139.828C211.433 139.923 211.187 139.972 210.937 139.972ZM210.937 148.7H122.148C121.644 148.7 121.162 148.5 120.806 148.144C120.45 147.788 120.25 147.306 120.25 146.802C120.25 146.553 120.299 146.306 120.395 146.076C120.49 145.846 120.63 145.637 120.806 145.461C120.982 145.284 121.191 145.145 121.422 145.049C121.652 144.954 121.899 144.905 122.148 144.905H210.937C211.187 144.905 211.433 144.954 211.664 145.049C211.894 145.145 212.103 145.284 212.279 145.461C212.455 145.637 212.595 145.846 212.69 146.076C212.786 146.306 212.835 146.553 212.835 146.802C212.835 147.052 212.786 147.298 212.69 147.528C212.595 147.759 212.455 147.968 212.279 148.144C212.103 148.32 211.894 148.46 211.664 148.555C211.433 148.651 211.187 148.7 210.937 148.7ZM210.937 157.427H122.148C121.644 157.427 121.162 157.227 120.806 156.871C120.45 156.516 120.25 156.033 120.25 155.53C120.25 155.027 120.45 154.544 120.806 154.188C121.162 153.832 121.644 153.632 122.148 153.632H210.937C211.187 153.632 211.433 153.681 211.664 153.777C211.894 153.872 212.103 154.012 212.279 154.188C212.455 154.364 212.595 154.573 212.69 154.804C212.786 155.034 212.835 155.281 212.835 155.53C212.834 156.033 212.634 156.515 212.278 156.87C211.922 157.226 211.44 157.426 210.937 157.427ZM210.937 166.155H122.148C121.644 166.155 121.162 165.955 120.806 165.599C120.45 165.243 120.25 164.76 120.25 164.257C120.25 163.754 120.45 163.271 120.806 162.915C121.162 162.56 121.644 162.36 122.148 162.36H210.937C211.187 162.36 211.433 162.409 211.664 162.504C211.894 162.6 212.103 162.739 212.279 162.915C212.455 163.092 212.595 163.301 212.69 163.531C212.786 163.761 212.835 164.008 212.835 164.257C212.834 164.76 212.634 165.242 212.278 165.598C211.922 165.953 211.44 166.154 210.937 166.155ZM210.937 174.87H122.148C121.899 174.87 121.652 174.821 121.422 174.726C121.191 174.63 120.982 174.49 120.806 174.314C120.63 174.138 120.49 173.929 120.395 173.699C120.299 173.468 120.25 173.222 120.25 172.973C120.25 172.469 120.45 171.987 120.806 171.631C121.162 171.275 121.644 171.075 122.148 171.075H210.937C211.187 171.075 211.433 171.124 211.664 171.22C211.894 171.315 212.103 171.455 212.279 171.631C212.455 171.807 212.595 172.016 212.69 172.246C212.786 172.477 212.835 172.723 212.835 172.973C212.834 173.475 212.634 173.957 212.278 174.313C211.922 174.669 211.44 174.869 210.937 174.87ZM210.937 183.609H122.148C121.644 183.609 121.162 183.41 120.806 183.054C120.45 182.698 120.25 182.215 120.25 181.712C120.25 181.463 120.299 181.216 120.395 180.986C120.49 180.756 120.63 180.547 120.806 180.37C120.982 180.194 121.191 180.054 121.422 179.959C121.652 179.864 121.899 179.815 122.148 179.815H210.937C211.187 179.815 211.433 179.864 211.664 179.959C211.894 180.054 212.103 180.194 212.279 180.37C212.455 180.547 212.595 180.756 212.69 180.986C212.786 181.216 212.835 181.463 212.835 181.712C212.834 182.215 212.634 182.697 212.278 183.053C211.922 183.408 211.44 183.608 210.937 183.609ZM210.937 192.333H122.148C121.899 192.333 121.652 192.285 121.422 192.19C121.192 192.095 120.983 191.956 120.806 191.78C120.63 191.604 120.49 191.395 120.395 191.165C120.299 190.935 120.25 190.688 120.25 190.439C120.25 189.936 120.45 189.454 120.806 189.098C121.162 188.742 121.644 188.542 122.148 188.542H210.937C211.187 188.542 211.433 188.591 211.664 188.686C211.894 188.782 212.103 188.922 212.279 189.098C212.455 189.274 212.595 189.483 212.69 189.713C212.786 189.944 212.835 190.19 212.835 190.439C212.834 190.942 212.633 191.424 212.278 191.779C211.922 192.134 211.44 192.333 210.937 192.333ZM210.937 199.163H122.148C121.899 199.163 121.652 199.114 121.422 199.018C121.191 198.923 120.982 198.783 120.806 198.607C120.63 198.431 120.49 198.222 120.395 197.992C120.299 197.761 120.25 197.515 120.25 197.265C120.25 197.016 120.299 196.77 120.395 196.54C120.49 196.31 120.63 196.101 120.806 195.925C120.983 195.749 121.192 195.61 121.422 195.515C121.652 195.42 121.899 195.371 122.148 195.372H210.937C211.44 195.372 211.922 195.571 212.278 195.926C212.633 196.281 212.834 196.763 212.835 197.265C212.835 197.515 212.786 197.761 212.69 197.992C212.595 198.222 212.455 198.431 212.279 198.607C212.103 198.783 211.894 198.923 211.664 199.018C211.433 199.114 211.187 199.163 210.937 199.163ZM210.937 207.89H122.148C121.899 207.89 121.652 207.841 121.422 207.746C121.191 207.65 120.982 207.511 120.806 207.335C120.63 207.158 120.49 206.949 120.395 206.719C120.299 206.489 120.25 206.242 120.25 205.993C120.25 205.49 120.45 205.007 120.806 204.651C121.162 204.295 121.644 204.095 122.148 204.095H210.937C211.44 204.096 211.922 204.297 212.278 204.652C212.634 205.008 212.834 205.49 212.835 205.993C212.835 206.242 212.786 206.489 212.69 206.719C212.595 206.949 212.455 207.158 212.279 207.335C212.103 207.511 211.894 207.65 211.664 207.746C211.433 207.841 211.187 207.89 210.937 207.89Z" fill="#A671DD"/>
<path d="M183.352 247.608L77.381 275.37C74.4223 276.146 71.4716 274.662 70.7922 272.066L32.6022 125.649C31.6093 121.858 34.3067 117.866 38.6322 116.733L139.671 90.2812C143.988 89.1475 148.298 91.3063 149.291 95.1052L187.481 241.526C188.156 244.102 186.307 246.828 183.352 247.608Z" fill="#9D51ED"/>
<path d="M178.086 240.561L79.6804 266.345C77.8151 266.832 75.9499 265.883 75.5157 264.219L38.7769 123.309C38.3427 121.645 39.5045 119.901 41.3698 119.414L121.332 98.4619C123.682 97.8246 126.184 98.0647 128.371 99.1372L143.992 107.016C145.015 107.512 145.921 108.22 146.648 109.093C147.376 109.967 147.908 110.986 148.209 112.082L180.675 236.665C181.109 238.33 179.951 240.074 178.086 240.561Z" fill="white"/>
<path d="M103.165 92.6489L96.7735 94.3213C96.0462 91.9145 94.4143 89.8833 92.2207 88.6547C90.0272 87.426 87.4427 87.0954 85.0105 87.7325C82.5783 88.3696 80.4878 89.9246 79.1782 92.0709C77.8686 94.2172 77.442 96.7875 77.988 99.2417L71.5841 100.902C70.7704 101.114 70.0065 101.485 69.3361 101.993C68.6657 102.501 68.1019 103.135 67.6771 103.861C67.2522 104.587 66.9745 105.389 66.86 106.223C66.7454 107.056 66.7962 107.903 67.0094 108.717L68.0305 112.588C68.1497 113.042 68.3572 113.468 68.6411 113.842C68.9251 114.216 69.2799 114.53 69.6853 114.767C70.0907 115.004 70.5388 115.158 71.0039 115.222C71.4691 115.285 71.9422 115.256 72.3962 115.137L109.444 105.437C109.899 105.318 110.326 105.11 110.701 104.826C111.076 104.542 111.39 104.187 111.628 103.781C111.865 103.375 112.019 102.927 112.083 102.461C112.146 101.995 112.117 101.521 111.997 101.067L110.98 97.2036C110.547 95.5639 109.48 94.1631 108.015 93.3091C106.55 92.4551 104.806 92.2177 103.165 92.6489ZM88.6933 101.871C87.6868 102.134 86.6248 102.094 85.6414 101.754C84.658 101.414 83.7974 100.791 83.1683 99.9622C82.5393 99.1335 82.17 98.1369 82.1071 97.0984C82.0442 96.0599 82.2906 95.0261 82.8151 94.1276C83.3396 93.229 84.1187 92.5062 85.0539 92.0503C85.9891 91.5944 87.0385 91.426 88.0694 91.5663C89.1003 91.7067 90.0665 92.1494 90.8458 92.8387C91.6252 93.528 92.1827 94.4328 92.4479 95.4388C92.625 96.1069 92.6687 96.8034 92.5764 97.4883C92.4841 98.1733 92.2577 98.8334 91.9101 99.4307C91.5625 100.028 91.1005 100.551 90.5506 100.97C90.0007 101.389 89.3737 101.695 88.7053 101.871H88.6933Z" fill="#8130D5"/>
<path d="M148.338 112.504C147.777 110.311 146.4 108.415 144.487 107.205L130.65 98.5945C129.751 98.0247 128.744 97.6448 127.693 97.4781C126.641 97.3115 125.567 97.3618 124.536 97.6257L123.301 97.9473L128.439 117.81C128.464 117.921 128.51 118.027 128.576 118.12C128.641 118.213 128.725 118.293 128.821 118.354C128.918 118.415 129.025 118.456 129.138 118.475C129.25 118.494 129.365 118.491 129.476 118.465L148.591 113.525L148.338 112.504Z" fill="#CFA7F9"/>
<path d="M78.953 128.518L53.0988 135.204C50.47 135.884 48.89 138.566 49.5699 141.195L56.2562 167.049C56.9361 169.678 59.6183 171.258 62.2471 170.578L88.1013 163.892C90.7301 163.212 92.3101 160.53 91.6302 157.901L84.9438 132.047C84.264 129.418 81.5818 127.838 78.953 128.518Z" fill="#9D51ED"/>
<path d="M74.8805 141.062C75.2 142.27 75.1534 143.546 74.7468 144.728C74.3402 145.91 73.5918 146.945 72.5965 147.701C71.6012 148.457 70.4038 148.9 69.1562 148.975C67.9085 149.05 66.6668 148.752 65.5883 148.12C64.5099 147.489 63.6433 146.551 63.0985 145.426C62.5537 144.301 62.3551 143.04 62.528 141.802C62.7009 140.564 63.2374 139.405 64.0696 138.473C64.9017 137.54 65.9921 136.876 67.2023 136.563C68.0019 136.354 68.8347 136.305 69.6534 136.418C70.472 136.531 71.2603 136.804 71.9733 137.222C72.6864 137.64 73.3101 138.194 73.8089 138.853C74.3077 139.512 74.6719 140.262 74.8805 141.062Z" fill="#CEA6F8"/>
<path d="M77.2041 146.73C77.1205 146.681 77.0274 146.651 76.9311 146.641C76.8349 146.631 76.7376 146.642 76.6459 146.673C76.5541 146.704 76.4701 146.754 76.3992 146.82C76.3284 146.886 76.2725 146.966 76.2353 147.056C75.7621 148.135 75.0501 149.092 74.1529 149.856C73.2557 150.62 72.1968 151.17 71.056 151.465C69.9152 151.76 68.7223 151.792 67.5673 151.559C66.4123 151.326 65.3253 150.833 64.3883 150.119C64.3125 150.059 64.2246 150.016 64.1308 149.992C64.0369 149.969 63.9391 149.966 63.8439 149.984C63.7488 150.001 63.6585 150.039 63.579 150.094C63.4996 150.149 63.4329 150.221 63.3833 150.304C61.6914 153.37 61.2589 156.974 62.1773 160.354C62.4422 161.373 62.8155 162.361 63.2909 163.3C63.3604 163.439 63.4753 163.55 63.6164 163.614C63.7575 163.679 63.9165 163.693 64.0667 163.654L83.0532 158.746C83.2032 158.707 83.3354 158.618 83.4282 158.494C83.521 158.369 83.5688 158.217 83.5637 158.062C83.5252 157.009 83.3729 155.963 83.1095 154.943C82.278 151.544 80.1612 148.6 77.2041 146.73Z" fill="#CEA6F8"/>
<path d="M108.399 109.28L75.3589 117.818C74.4343 118.059 73.8394 118.851 74.0323 119.591L74.3861 120.958C74.575 121.697 75.4795 122.099 76.3961 121.862L109.436 113.32C110.361 113.083 110.956 112.287 110.763 111.551L110.409 110.184C110.228 109.444 109.344 109.038 108.399 109.28Z" fill="#8108FF"/>
<path d="M67.4646 177.587L62.9127 178.722C61.8226 178.993 61.1593 180.097 61.4311 181.187L62.566 185.739C62.8378 186.829 63.9418 187.493 65.0318 187.221L69.5838 186.086C70.6738 185.814 71.3372 184.71 71.0654 183.62L69.9304 179.068C69.6587 177.978 68.5547 177.315 67.4646 177.587Z" fill="#8108FF"/>
<path d="M70.9637 191.243L66.4216 192.416C65.3339 192.697 64.6801 193.807 64.9612 194.895L66.135 199.437C66.4161 200.524 67.5257 201.178 68.6134 200.897L73.1555 199.723C74.2432 199.442 74.897 198.333 74.6159 197.245L73.4421 192.703C73.161 191.615 72.0514 190.961 70.9637 191.243Z" fill="#8108FF"/>
<path d="M74.6107 205.219L70.0688 206.393C68.9812 206.675 68.3275 207.784 68.6088 208.872L69.7834 213.414C70.0647 214.501 71.1744 215.155 72.262 214.874L76.8039 213.699C77.8915 213.418 78.5452 212.308 78.2639 211.221L77.0893 206.679C76.808 205.591 75.6983 204.937 74.6107 205.219Z" fill="#8108FF"/>
<path d="M78.1946 219.234L73.6525 220.408C72.5648 220.689 71.9109 221.799 72.192 222.887L73.3659 227.429C73.6469 228.516 74.7566 229.17 75.8442 228.889L80.3863 227.715C81.474 227.434 82.1279 226.325 81.8468 225.237L80.673 220.695C80.3919 219.607 79.2823 218.953 78.1946 219.234Z" fill="#8108FF"/>
<path d="M81.9467 233.675L77.3947 234.81C76.3047 235.082 75.6413 236.186 75.9131 237.276L77.048 241.828C77.3198 242.918 78.4238 243.581 79.5138 243.309L84.0658 242.175C85.1559 241.903 85.8192 240.799 85.5474 239.709L84.4125 235.157C84.1407 234.067 83.0367 233.403 81.9467 233.675Z" fill="#8108FF"/>
<path d="M86.1631 248.575L81.621 249.749C80.5333 250.03 79.8795 251.14 80.1606 252.227L81.3344 256.769C81.6155 257.857 82.7251 258.511 83.8128 258.23L88.3549 257.056C89.4425 256.775 90.0964 255.665 89.8153 254.578L88.6415 250.035C88.3604 248.948 87.2508 248.294 86.1631 248.575Z" fill="#8108FF"/>
<path d="M136.137 162.637L76.8946 177.953C76.6987 178.004 76.4948 178.016 76.2944 177.988C76.094 177.96 75.9011 177.892 75.7268 177.79C75.5524 177.687 75.4 177.551 75.2782 177.389C75.1565 177.228 75.0678 177.044 75.0172 176.848C74.9664 176.652 74.9547 176.448 74.9828 176.248C75.0109 176.047 75.0782 175.854 75.1808 175.68C75.2835 175.506 75.4196 175.353 75.5812 175.232C75.7428 175.11 75.9268 175.021 76.1227 174.971L135.369 159.654C135.764 159.553 136.184 159.612 136.535 159.82C136.886 160.027 137.141 160.365 137.243 160.76C137.294 160.956 137.305 161.16 137.277 161.36C137.249 161.56 137.182 161.753 137.079 161.928C136.977 162.102 136.84 162.254 136.679 162.376C136.517 162.498 136.333 162.587 136.137 162.637ZM122.485 171.332L78.1448 182.797C77.7498 182.899 77.3307 182.839 76.9795 182.632C76.6283 182.425 76.3737 182.087 76.2715 181.692C76.2207 181.496 76.209 181.292 76.237 181.092C76.2651 180.891 76.3324 180.699 76.4351 180.524C76.5378 180.35 76.6738 180.197 76.8354 180.076C76.997 179.954 77.181 179.865 77.377 179.815L121.718 168.354C122.113 168.252 122.532 168.312 122.883 168.519C123.234 168.726 123.489 169.064 123.591 169.459C123.692 169.854 123.633 170.273 123.426 170.624C123.218 170.976 122.88 171.23 122.485 171.332ZM134.955 178.05L80.5528 192.12C80.1578 192.221 79.7387 192.162 79.3875 191.955C79.0363 191.747 78.7816 191.409 78.6794 191.014C78.6287 190.819 78.617 190.615 78.6452 190.415C78.6733 190.215 78.7406 190.022 78.8433 189.848C78.946 189.674 79.0821 189.522 79.2437 189.401C79.4052 189.279 79.5892 189.191 79.7849 189.141L134.184 175.071C134.379 175.02 134.583 175.009 134.784 175.037C134.984 175.065 135.177 175.132 135.351 175.235C135.526 175.337 135.678 175.473 135.8 175.635C135.922 175.797 136.01 175.981 136.061 176.177C136.162 176.572 136.103 176.991 135.896 177.342C135.688 177.693 135.35 177.948 134.955 178.05ZM141.05 181.64L81.807 196.956C81.6111 197.007 81.4072 197.018 81.2068 196.99C81.0064 196.962 80.8135 196.895 80.6392 196.792C80.4648 196.69 80.3124 196.554 80.1907 196.392C80.0689 196.23 79.9802 196.046 79.9297 195.85C79.8789 195.655 79.8672 195.451 79.8952 195.25C79.9233 195.05 79.9906 194.857 80.0933 194.683C80.196 194.508 80.332 194.356 80.4936 194.234C80.6552 194.112 80.8392 194.024 81.0352 193.973L140.298 178.657C140.693 178.557 141.112 178.617 141.462 178.824C141.813 179.031 142.068 179.368 142.171 179.762C142.222 179.959 142.233 180.164 142.204 180.366C142.175 180.567 142.106 180.76 142.002 180.935C141.897 181.109 141.76 181.261 141.596 181.382C141.433 181.503 141.247 181.591 141.05 181.64ZM131.534 194.037L84.215 206.27C84.0191 206.321 83.8152 206.333 83.6148 206.305C83.4144 206.277 83.2215 206.209 83.0472 206.107C82.8728 206.004 82.7204 205.868 82.5987 205.706C82.4769 205.545 82.3882 205.361 82.3376 205.165C82.2363 204.77 82.2957 204.351 82.503 203.999C82.7102 203.648 83.0484 203.394 83.4431 203.291L130.767 191.055C130.963 191.002 131.168 190.989 131.37 191.015C131.572 191.042 131.767 191.109 131.943 191.211C132.119 191.314 132.272 191.45 132.396 191.612C132.519 191.774 132.609 191.959 132.66 192.156C132.711 192.354 132.722 192.559 132.693 192.761C132.664 192.963 132.595 193.157 132.491 193.332C132.386 193.507 132.247 193.66 132.083 193.781C131.919 193.902 131.733 193.989 131.534 194.037ZM139.494 197.149L85.4652 211.114C85.0702 211.216 84.6511 211.156 84.2999 210.949C83.9487 210.742 83.6941 210.404 83.5919 210.009C83.5411 209.813 83.5295 209.61 83.5576 209.409C83.5857 209.209 83.6531 209.017 83.7558 208.843C83.8585 208.669 83.9945 208.517 84.1561 208.395C84.3177 208.274 84.5016 208.186 84.6974 208.136L138.726 194.166C139.121 194.065 139.54 194.124 139.891 194.331C140.243 194.539 140.497 194.877 140.6 195.272C140.65 195.467 140.662 195.671 140.634 195.872C140.606 196.072 140.539 196.265 140.436 196.439C140.333 196.614 140.197 196.766 140.036 196.888C139.874 197.01 139.69 197.098 139.494 197.149ZM144.141 205.884L87.8611 220.429C87.6653 220.479 87.4613 220.491 87.2609 220.463C87.0605 220.435 86.8677 220.368 86.6933 220.265C86.519 220.162 86.3666 220.026 86.2448 219.865C86.1231 219.703 86.0344 219.519 85.9838 219.323C85.8824 218.928 85.9419 218.509 86.1491 218.158C86.3564 217.807 86.6945 217.552 87.0893 217.45L143.369 202.906C143.565 202.855 143.768 202.843 143.968 202.871C144.168 202.899 144.36 202.966 144.534 203.068C144.708 203.17 144.86 203.306 144.982 203.467C145.103 203.628 145.192 203.812 145.243 204.007C145.345 204.402 145.287 204.822 145.08 205.174C144.874 205.526 144.536 205.781 144.141 205.884ZM136.077 213.136L89.1274 225.273C88.9316 225.324 88.7276 225.335 88.5272 225.307C88.3268 225.279 88.134 225.212 87.9596 225.109C87.7853 225.006 87.6328 224.87 87.5111 224.709C87.3894 224.547 87.3007 224.363 87.2501 224.167C87.1487 223.772 87.2082 223.353 87.4154 223.002C87.6227 222.651 87.9608 222.396 88.3556 222.294L135.305 210.158C135.7 210.055 136.12 210.113 136.472 210.32C136.824 210.526 137.079 210.864 137.183 211.259C137.233 211.455 137.245 211.659 137.217 211.859C137.189 212.06 137.122 212.253 137.019 212.427C136.916 212.601 136.78 212.754 136.619 212.875C136.457 212.997 136.273 213.086 136.077 213.136ZM126.465 225.16L91.4389 234.217C91.2433 234.268 91.0396 234.28 90.8395 234.252C90.6394 234.223 90.4468 234.156 90.2728 234.053C90.0988 233.951 89.9467 233.815 89.8254 233.653C89.704 233.492 89.6157 233.308 89.5656 233.112C89.4629 232.717 89.5212 232.297 89.7277 231.945C89.9343 231.593 90.2721 231.337 90.6671 231.234L125.693 222.181C125.889 222.131 126.093 222.119 126.294 222.147C126.494 222.175 126.687 222.242 126.861 222.345C127.036 222.448 127.188 222.584 127.31 222.745C127.431 222.907 127.52 223.091 127.571 223.287C127.621 223.483 127.633 223.686 127.605 223.886C127.577 224.086 127.509 224.279 127.407 224.453C127.304 224.627 127.168 224.779 127.006 224.9C126.845 225.022 126.661 225.11 126.465 225.16ZM151.956 223.745L92.7133 239.061C92.5174 239.112 92.3135 239.124 92.1131 239.096C91.9127 239.068 91.7198 239 91.5455 238.898C91.3711 238.795 91.2187 238.659 91.0969 238.497C90.9752 238.336 90.8865 238.152 90.8359 237.956C90.7851 237.76 90.7734 237.556 90.8015 237.356C90.8296 237.155 90.8969 236.962 90.9996 236.788C91.1022 236.614 91.2383 236.461 91.3999 236.34C91.5615 236.218 91.7455 236.129 91.9414 236.079L151.152 220.762C151.348 220.712 151.552 220.7 151.752 220.728C151.953 220.756 152.145 220.823 152.32 220.926C152.494 221.029 152.647 221.165 152.768 221.326C152.89 221.488 152.979 221.672 153.029 221.868C153.133 222.259 153.079 222.675 152.878 223.027C152.677 223.378 152.346 223.636 151.956 223.745ZM130.819 240.509L95.7926 249.562C95.3976 249.663 94.9785 249.604 94.6273 249.396C94.2761 249.189 94.0215 248.851 93.9193 248.456C93.8685 248.261 93.8569 248.057 93.885 247.857C93.9131 247.657 93.9805 247.464 94.0832 247.29C94.1859 247.116 94.3219 246.964 94.4835 246.843C94.6451 246.721 94.829 246.633 95.0248 246.583L130.051 237.526C130.446 237.424 130.865 237.484 131.216 237.691C131.568 237.898 131.822 238.236 131.924 238.631C131.975 238.827 131.987 239.031 131.959 239.231C131.931 239.432 131.863 239.625 131.761 239.799C131.658 239.973 131.522 240.126 131.36 240.248C131.199 240.369 131.015 240.458 130.819 240.509ZM156.29 239.09L97.0468 254.406C96.851 254.457 96.647 254.468 96.4466 254.44C96.2463 254.412 96.0534 254.345 95.879 254.242C95.7047 254.139 95.5522 254.003 95.4305 253.842C95.3088 253.68 95.2201 253.496 95.1695 253.3C95.0681 252.905 95.1276 252.486 95.3348 252.135C95.5421 251.784 95.8802 251.529 96.275 251.427L155.522 236.111C155.717 236.06 155.921 236.048 156.12 236.076C156.32 236.104 156.513 236.171 156.687 236.273C156.861 236.375 157.013 236.511 157.134 236.672C157.256 236.833 157.345 237.017 157.395 237.212C157.446 237.408 157.458 237.612 157.429 237.812C157.401 238.013 157.334 238.206 157.231 238.38C157.129 238.554 156.993 238.707 156.831 238.829C156.67 238.95 156.485 239.039 156.29 239.09ZM105.754 138.183L130.57 131.751C130.704 131.717 130.831 131.657 130.942 131.574C131.053 131.49 131.146 131.386 131.217 131.266C131.288 131.147 131.334 131.014 131.353 130.877C131.372 130.739 131.364 130.599 131.329 130.465C131.295 130.331 131.234 130.205 131.151 130.094C131.067 129.983 130.963 129.89 130.843 129.82C130.724 129.75 130.591 129.704 130.454 129.685C130.317 129.666 130.177 129.674 130.043 129.709L105.228 136.141C105.093 136.176 104.966 136.236 104.855 136.319C104.744 136.403 104.651 136.507 104.58 136.627C104.509 136.746 104.463 136.878 104.444 137.016C104.425 137.153 104.433 137.293 104.468 137.428C104.54 137.698 104.715 137.928 104.956 138.07C105.197 138.211 105.483 138.252 105.754 138.183ZM100.532 137.351L91.3947 139.711C91.2603 139.746 91.1342 139.807 91.0235 139.891C90.9128 139.975 90.8197 140.08 90.7495 140.2C90.6793 140.32 90.6334 140.452 90.6145 140.59C90.5955 140.727 90.6038 140.867 90.6389 141.002C90.6736 141.136 90.7344 141.262 90.8178 141.372C90.9013 141.483 91.0057 141.576 91.1252 141.646C91.2448 141.717 91.377 141.763 91.5143 141.782C91.6516 141.801 91.7912 141.792 91.9253 141.757L101.063 139.398C101.197 139.362 101.323 139.301 101.434 139.217C101.545 139.134 101.638 139.029 101.708 138.909C101.778 138.789 101.824 138.657 101.843 138.519C101.862 138.381 101.854 138.241 101.819 138.107C101.784 137.973 101.723 137.847 101.64 137.736C101.556 137.626 101.452 137.532 101.332 137.462C101.213 137.392 101.081 137.346 100.943 137.327C100.806 137.308 100.666 137.316 100.532 137.351ZM114.534 140.921L131.784 136.459C132.055 136.389 132.287 136.214 132.43 135.973C132.572 135.732 132.613 135.444 132.543 135.173C132.473 134.901 132.299 134.669 132.057 134.527C131.816 134.384 131.528 134.343 131.257 134.413L114.007 138.875C113.873 138.909 113.746 138.97 113.635 139.053C113.524 139.136 113.43 139.241 113.36 139.36C113.289 139.48 113.243 139.612 113.224 139.75C113.204 139.887 113.212 140.027 113.247 140.161C113.318 140.432 113.493 140.664 113.734 140.806C113.975 140.948 114.263 140.99 114.534 140.921ZM91.6841 145.737C91.7542 146.008 91.929 146.241 92.1702 146.383C92.4114 146.526 92.6992 146.566 92.9705 146.497L110.976 141.842C111.248 141.771 111.48 141.595 111.622 141.353C111.765 141.112 111.806 140.823 111.736 140.551C111.665 140.281 111.49 140.049 111.249 139.908C111.008 139.766 110.72 139.726 110.45 139.796L92.46 144.451C92.324 144.483 92.1958 144.542 92.0829 144.625C91.97 144.707 91.8746 144.811 91.8024 144.931C91.7302 145.051 91.6825 145.184 91.6622 145.322C91.6419 145.461 91.6494 145.602 91.6841 145.737ZM108.182 147.57L132.998 141.138C133.269 141.068 133.501 140.893 133.644 140.652C133.786 140.411 133.827 140.123 133.757 139.852C133.687 139.581 133.513 139.348 133.271 139.206C133.03 139.063 132.742 139.022 132.471 139.092L107.656 145.524C107.384 145.594 107.152 145.769 107.01 146.01C106.867 146.251 106.826 146.539 106.896 146.81C106.966 147.082 107.141 147.314 107.382 147.456C107.623 147.599 107.911 147.64 108.182 147.57ZM102.96 146.73L93.8228 149.094C93.6886 149.128 93.5625 149.189 93.4518 149.273C93.3412 149.356 93.2481 149.461 93.1779 149.58C93.1076 149.7 93.0617 149.832 93.0427 149.969C93.0237 150.106 93.0319 150.246 93.067 150.38C93.1371 150.651 93.3119 150.884 93.553 151.026C93.7942 151.169 94.0821 151.21 94.3534 151.14L103.487 148.776C103.758 148.706 103.99 148.531 104.133 148.29C104.275 148.049 104.316 147.761 104.247 147.49C104.177 147.219 104.002 146.986 103.761 146.844C103.519 146.701 103.232 146.66 102.96 146.73ZM116.982 150.308L134.232 145.85C134.503 145.779 134.736 145.603 134.878 145.361C135.021 145.119 135.061 144.831 134.992 144.559C134.921 144.289 134.746 144.057 134.504 143.916C134.263 143.774 133.976 143.734 133.705 143.803L116.455 148.262C116.184 148.332 115.952 148.506 115.809 148.748C115.667 148.989 115.626 149.277 115.696 149.548C115.766 149.819 115.94 150.052 116.182 150.194C116.423 150.337 116.711 150.377 116.982 150.308ZM94.1122 155.124C94.1464 155.258 94.2069 155.385 94.2902 155.496C94.3734 155.607 94.4778 155.701 94.5974 155.771C94.717 155.842 94.8493 155.888 94.9868 155.907C95.1243 155.927 95.2643 155.919 95.3986 155.884L113.404 151.228C113.675 151.159 113.908 150.985 114.051 150.745C114.194 150.505 114.236 150.217 114.168 149.946C114.097 149.674 113.921 149.442 113.68 149.3C113.438 149.157 113.149 149.117 112.878 149.186L94.872 153.837C94.6008 153.907 94.3684 154.082 94.226 154.323C94.0835 154.565 94.0426 154.852 94.1122 155.124ZM110.61 156.957L135.426 150.525C135.56 150.491 135.687 150.43 135.798 150.347C135.909 150.264 136.003 150.159 136.073 150.04C136.144 149.92 136.19 149.788 136.209 149.65C136.229 149.513 136.221 149.373 136.186 149.238C136.115 148.968 135.94 148.736 135.699 148.594C135.458 148.452 135.17 148.41 134.899 148.479L110.08 154.911C109.945 154.945 109.819 155.006 109.709 155.09C109.598 155.173 109.505 155.278 109.435 155.397C109.365 155.517 109.319 155.649 109.3 155.786C109.281 155.923 109.289 156.063 109.324 156.197C109.358 156.332 109.419 156.458 109.502 156.569C109.585 156.68 109.69 156.774 109.809 156.845C109.929 156.915 110.061 156.961 110.198 156.981C110.336 157 110.476 156.992 110.61 156.957ZM105.388 156.125L96.2509 158.489C95.9802 158.559 95.7486 158.734 95.6063 158.975C95.464 159.216 95.4226 159.504 95.4911 159.775C95.562 160.046 95.7376 160.279 95.9794 160.421C96.2213 160.564 96.5097 160.604 96.7815 160.535L105.915 158.171C106.05 158.137 106.176 158.076 106.287 157.993C106.398 157.91 106.492 157.805 106.562 157.686C106.633 157.566 106.679 157.434 106.699 157.296C106.718 157.159 106.71 157.019 106.675 156.885C106.604 156.614 106.429 156.382 106.188 156.24C105.947 156.098 105.66 156.056 105.388 156.125Z" fill="#CEA6F8"/>
<path opacity="0.06" d="M186.194 338.347C242.765 338.347 288.624 334.262 288.624 329.222C288.624 324.182 242.765 320.097 186.194 320.097C129.624 320.097 83.7647 324.182 83.7647 329.222C83.7647 334.262 129.624 338.347 186.194 338.347Z" fill="#FDFCFF"/>
<path opacity="0.11" d="M186.194 337.901C239.985 337.901 283.591 334.015 283.591 329.222C283.591 324.429 239.985 320.543 186.194 320.543C132.404 320.543 88.7978 324.429 88.7978 329.222C88.7978 334.015 132.404 337.901 186.194 337.901Z" fill="#FBF9FE"/>
<path opacity="0.17" d="M186.194 337.451C237.208 337.451 278.562 333.767 278.562 329.222C278.562 324.677 237.208 320.993 186.194 320.993C135.181 320.993 93.8268 324.677 93.8268 329.222C93.8268 333.767 135.181 337.451 186.194 337.451Z" fill="#F9F5FE"/>
<path opacity="0.22" d="M186.194 337.005C234.43 337.005 273.533 333.52 273.533 329.222C273.533 324.924 234.43 321.439 186.194 321.439C137.959 321.439 98.8558 324.924 98.8558 329.222C98.8558 333.52 137.959 337.005 186.194 337.005Z" fill="#F7F2FD"/>
<path opacity="0.28" d="M186.194 336.554C231.653 336.554 268.504 333.272 268.504 329.222C268.504 325.172 231.653 321.889 186.194 321.889C140.736 321.889 103.885 325.172 103.885 329.222C103.885 333.272 140.736 336.554 186.194 336.554Z" fill="#F6EFFD"/>
<path opacity="0.33" d="M186.194 336.108C228.875 336.108 263.475 333.025 263.475 329.222C263.475 325.419 228.875 322.336 186.194 322.336C143.514 322.336 108.914 325.419 108.914 329.222C108.914 333.025 143.514 336.108 186.194 336.108Z" fill="#F4ECFC"/>
<path opacity="0.39" d="M186.194 335.658C226.098 335.658 258.446 332.776 258.446 329.222C258.446 325.667 226.098 322.786 186.194 322.786C146.291 322.786 113.943 325.667 113.943 329.222C113.943 332.776 146.291 335.658 186.194 335.658Z" fill="#F2E9FC"/>
<path opacity="0.44" d="M186.194 335.212C223.318 335.212 253.413 332.53 253.413 329.222C253.413 325.914 223.318 323.232 186.194 323.232C149.071 323.232 118.976 325.914 118.976 329.222C118.976 332.53 149.071 335.212 186.194 335.212Z" fill="#F0E6FB"/>
<path opacity="0.5" d="M186.194 334.766C220.541 334.766 248.384 332.284 248.384 329.222C248.384 326.16 220.541 323.678 186.194 323.678C151.848 323.678 124.005 326.16 124.005 329.222C124.005 332.284 151.848 334.766 186.194 334.766Z" fill="#EFE3FB"/>
<path opacity="0.56" d="M186.194 334.315C217.763 334.315 243.355 332.035 243.355 329.222C243.355 326.409 217.763 324.129 186.194 324.129C154.626 324.129 129.034 326.409 129.034 329.222C129.034 332.035 154.626 334.315 186.194 334.315Z" fill="#EDDFFB"/>
<path opacity="0.61" d="M186.194 333.869C214.986 333.869 238.326 331.788 238.326 329.222C238.326 326.655 214.986 324.575 186.194 324.575C157.403 324.575 134.063 326.655 134.063 329.222C134.063 331.788 157.403 333.869 186.194 333.869Z" fill="#EBDCFA"/>
<path opacity="0.67" d="M186.194 333.419C212.208 333.419 233.297 331.54 233.297 329.222C233.297 326.904 212.208 325.025 186.194 325.025C160.18 325.025 139.092 326.904 139.092 329.222C139.092 331.54 160.18 333.419 186.194 333.419Z" fill="#E9D9FA"/>
<path opacity="0.72" d="M186.194 332.973C209.429 332.973 228.264 331.293 228.264 329.222C228.264 327.151 209.429 325.471 186.194 325.471C162.96 325.471 144.125 327.151 144.125 329.222C144.125 331.293 162.96 332.973 186.194 332.973Z" fill="#E7D6F9"/>
<path opacity="0.78" d="M186.194 332.522C206.651 332.522 223.235 331.045 223.235 329.222C223.235 327.399 206.651 325.922 186.194 325.922C165.738 325.922 149.154 327.399 149.154 329.222C149.154 331.045 165.738 332.522 186.194 332.522Z" fill="#E6D3F9"/>
<path opacity="0.83" d="M186.194 332.076C203.874 332.076 218.206 330.798 218.206 329.222C218.206 327.646 203.874 326.368 186.194 326.368C168.515 326.368 154.183 327.646 154.183 329.222C154.183 330.798 168.515 332.076 186.194 332.076Z" fill="#E4D0F8"/>
<path opacity="0.89" d="M186.194 331.626C201.096 331.626 213.177 330.55 213.177 329.222C213.177 327.894 201.096 326.818 186.194 326.818C171.292 326.818 159.212 327.894 159.212 329.222C159.212 330.55 171.292 331.626 186.194 331.626Z" fill="#E1CCF8"/>
<path opacity="0.94" d="M186.194 331.18C198.319 331.18 208.148 330.303 208.148 329.222C208.148 328.141 198.319 327.264 186.194 327.264C174.07 327.264 164.241 328.141 164.241 329.222C164.241 330.303 174.07 331.18 186.194 331.18Z" fill="#DFC9F7"/>
<path d="M186.194 330.729C195.539 330.729 203.115 330.055 203.115 329.222C203.115 328.389 195.539 327.714 186.194 327.714C176.85 327.714 169.274 328.389 169.274 329.222C169.274 330.055 176.85 330.729 186.194 330.729Z" fill="#DEC6F7"/>
<path d="M211.609 160.462H161.118C155.321 160.462 150.617 165.286 150.613 171.264L150.585 197.579C150.585 203.545 155.277 208.381 161.073 208.381H211.565C217.361 208.381 222.065 203.557 222.069 197.579L222.093 171.264C222.101 165.298 217.406 160.462 211.609 160.462ZM215.681 193.467C215.681 198.069 212.063 201.8 207.573 201.8H165.077C160.603 201.8 156.977 198.069 156.985 193.463V175.373C156.985 170.77 160.603 167.035 165.093 167.035H207.605C212.079 167.035 215.701 170.766 215.697 175.368L215.681 193.467Z" fill="#661AB5"/>
<path d="M276.89 190.146H95.7805C90.4259 190.146 86.0803 194.616 86.0762 200.124L85.9677 314.577C85.9677 320.088 90.2973 324.555 95.6519 324.555H276.765C282.116 324.555 286.461 320.088 286.465 314.577L286.574 200.124C286.582 194.596 282.244 190.146 276.89 190.146Z" fill="#8130D5"/>
<path d="M276.886 196.293H95.7725C90.4178 196.293 86.0762 200.759 86.0682 206.266V224.903C86.0682 233.112 91.0651 240.436 98.5744 243.198C155.195 264.076 217.406 264.076 274.027 243.198C281.541 240.432 286.562 233.108 286.57 224.899V206.262C286.574 200.759 282.24 196.293 276.886 196.293Z" fill="#661AB5"/>
<path d="M276.89 190.146H95.7805C90.4259 190.146 86.0803 194.616 86.0762 200.124V218.76C86.0762 226.969 91.0731 234.294 98.5825 237.055C155.202 257.933 217.412 257.933 274.031 237.055C281.545 234.29 286.566 226.965 286.574 218.756V200.12C286.582 194.596 282.244 190.146 276.89 190.146Z" fill="url(#paint1_linear_187_2354)"/>
<path d="M203.328 236.533H169.242C167.336 236.56 165.519 237.343 164.19 238.71C162.861 240.077 162.129 241.915 162.155 243.821V261.577C162.139 262.522 162.311 263.461 162.659 264.339C163.007 265.217 163.525 266.018 164.184 266.696C164.842 267.373 165.628 267.914 166.496 268.287C167.364 268.66 168.297 268.858 169.242 268.87H203.311C205.218 268.841 207.036 268.057 208.365 266.69C209.695 265.323 210.427 263.484 210.403 261.577V243.821C210.417 242.878 210.245 241.941 209.898 241.064C209.55 240.187 209.033 239.388 208.375 238.711C207.718 238.034 206.934 237.493 206.068 237.119C205.202 236.746 204.271 236.546 203.328 236.533Z" fill="#8006FF"/>
<path d="M198.319 241.28H174.255C172.909 241.301 171.625 241.853 170.686 242.818C169.746 243.782 169.227 245.08 169.242 246.426V258.968C169.222 260.312 169.736 261.609 170.671 262.574C171.607 263.539 172.887 264.093 174.231 264.114H198.299C199.645 264.093 200.928 263.539 201.867 262.574C202.806 261.609 203.324 260.311 203.307 258.964V246.422C203.326 245.079 202.811 243.784 201.876 242.82C200.941 241.856 199.661 241.303 198.319 241.28Z" fill="#8108FF"/>
<path d="M204.385 260.58C204.089 260.806 203.728 260.929 203.356 260.93C203.135 260.93 202.916 260.887 202.712 260.802C202.508 260.717 202.322 260.593 202.166 260.437C202.01 260.28 201.886 260.094 201.802 259.89C201.718 259.686 201.675 259.467 201.675 259.246V246.338C201.679 245.854 201.587 245.374 201.404 244.926C201.221 244.478 200.951 244.071 200.61 243.729C200.295 243.409 199.919 243.156 199.505 242.983C199.091 242.811 198.647 242.722 198.198 242.724C197.97 242.735 197.742 242.699 197.529 242.62C197.315 242.54 197.119 242.418 196.954 242.261C196.789 242.104 196.657 241.914 196.568 241.705C196.478 241.495 196.431 241.269 196.431 241.041C196.431 240.813 196.478 240.587 196.568 240.378C196.657 240.168 196.789 239.979 196.954 239.821C197.119 239.664 197.315 239.542 197.529 239.462C197.742 239.383 197.97 239.348 198.198 239.359C199.088 239.361 199.968 239.54 200.788 239.885C201.607 240.23 202.351 240.734 202.974 241.369C203.628 242.024 204.147 242.802 204.499 243.658C204.85 244.514 205.029 245.432 205.024 246.358V259.27C205.023 259.522 204.965 259.771 204.854 259.998C204.743 260.225 204.583 260.424 204.385 260.58Z" fill="#A650FF"/>
<path opacity="0.06" d="M257.988 359.609C322.306 359.609 374.447 355.639 374.447 350.741C374.447 345.843 322.306 341.873 257.988 341.873C193.669 341.873 141.528 345.843 141.528 350.741C141.528 355.639 193.669 359.609 257.988 359.609Z" fill="#FDFCFF"/>
<path opacity="0.11" d="M257.988 359.175C319.149 359.175 368.73 355.399 368.73 350.741C368.73 346.083 319.149 342.307 257.988 342.307C196.826 342.307 147.245 346.083 147.245 350.741C147.245 355.399 196.826 359.175 257.988 359.175Z" fill="#FBF9FE"/>
<path opacity="0.17" d="M257.988 358.741C315.99 358.741 363.01 355.159 363.01 350.741C363.01 346.323 315.99 342.741 257.988 342.741C199.985 342.741 152.965 346.323 152.965 350.741C152.965 355.159 199.985 358.741 257.988 358.741Z" fill="#F9F5FE"/>
<path opacity="0.22" d="M257.988 358.303C312.831 358.303 357.29 354.917 357.29 350.741C357.29 346.565 312.831 343.179 257.988 343.179C203.145 343.179 158.685 346.565 158.685 350.741C158.685 354.917 203.145 358.303 257.988 358.303Z" fill="#F7F2FD"/>
<path opacity="0.28" d="M257.988 357.868C309.673 357.868 351.573 354.677 351.573 350.741C351.573 346.805 309.673 343.614 257.988 343.614C206.302 343.614 164.402 346.805 164.402 350.741C164.402 354.677 206.302 357.868 257.988 357.868Z" fill="#F6EFFD"/>
<path opacity="0.33" d="M257.988 357.434C306.514 357.434 345.853 354.438 345.853 350.741C345.853 347.044 306.514 344.048 257.988 344.048C209.461 344.048 170.122 347.044 170.122 350.741C170.122 354.438 209.461 357.434 257.988 357.434Z" fill="#F4ECFC"/>
<path opacity="0.39" d="M257.988 356.996C303.357 356.996 340.136 354.196 340.136 350.741C340.136 347.286 303.357 344.486 257.988 344.486C212.618 344.486 175.839 347.286 175.839 350.741C175.839 354.196 212.618 356.996 257.988 356.996Z" fill="#F2E9FC"/>
<path opacity="0.44" d="M257.988 356.562C300.198 356.562 334.416 353.956 334.416 350.741C334.416 347.526 300.198 344.92 257.988 344.92C215.777 344.92 181.559 347.526 181.559 350.741C181.559 353.956 215.777 356.562 257.988 356.562Z" fill="#F0E6FB"/>
<path opacity="0.5" d="M257.988 356.128C297.038 356.128 328.695 353.716 328.695 350.741C328.695 347.766 297.038 345.354 257.988 345.354C218.937 345.354 187.28 347.766 187.28 350.741C187.28 353.716 218.937 356.128 257.988 356.128Z" fill="#EFE3FB"/>
<path opacity="0.56" d="M257.988 355.69C293.881 355.69 322.979 353.474 322.979 350.741C322.979 348.008 293.881 345.792 257.988 345.792C222.094 345.792 192.996 348.008 192.996 350.741C192.996 353.474 222.094 355.69 257.988 355.69Z" fill="#EDDFFB"/>
<path opacity="0.61" d="M257.988 355.255C290.722 355.255 317.258 353.234 317.258 350.741C317.258 348.248 290.722 346.227 257.988 346.227C225.253 346.227 198.717 348.248 198.717 350.741C198.717 353.234 225.253 355.255 257.988 355.255Z" fill="#EBDCFA"/>
<path opacity="0.67" d="M257.988 354.821C287.565 354.821 311.542 352.994 311.542 350.741C311.542 348.488 287.565 346.661 257.988 346.661C228.41 346.661 204.433 348.488 204.433 350.741C204.433 352.994 228.41 354.821 257.988 354.821Z" fill="#E9D9FA"/>
<path opacity="0.72" d="M257.988 354.383C284.405 354.383 305.821 352.752 305.821 350.741C305.821 348.73 284.405 347.099 257.988 347.099C231.57 347.099 210.154 348.73 210.154 350.741C210.154 352.752 231.57 354.383 257.988 354.383Z" fill="#E7D6F9"/>
<path opacity="0.78" d="M257.988 353.949C281.246 353.949 300.101 352.513 300.101 350.741C300.101 348.969 281.246 347.533 257.988 347.533C234.729 347.533 215.874 348.969 215.874 350.741C215.874 352.513 234.729 353.949 257.988 353.949Z" fill="#E6D3F9"/>
<path opacity="0.83" d="M257.988 353.515C278.089 353.515 294.385 352.273 294.385 350.741C294.385 349.209 278.089 347.967 257.988 347.967C237.886 347.967 221.59 349.209 221.59 350.741C221.59 352.273 237.886 353.515 257.988 353.515Z" fill="#E4D0F8"/>
<path opacity="0.89" d="M288.664 350.741C288.664 352.031 274.928 353.077 257.988 353.077C241.047 353.077 227.307 352.031 227.307 350.741C227.307 349.451 241.043 348.405 257.988 348.405C274.932 348.405 288.664 349.451 288.664 350.741Z" fill="#E1CCF8"/>
<path opacity="0.94" d="M282.944 350.741C282.944 351.79 271.772 352.642 257.988 352.642C244.203 352.642 233.027 351.79 233.027 350.741C233.027 349.692 244.203 348.84 257.988 348.84C271.772 348.84 282.944 349.692 282.944 350.741Z" fill="#DFC9F7"/>
<path d="M277.227 350.741C277.227 351.545 268.612 352.208 257.988 352.208C247.363 352.208 238.748 351.549 238.748 350.741C238.748 349.933 247.359 349.278 257.988 349.278C268.616 349.278 277.227 349.933 277.227 350.741Z" fill="#DEC6F7"/>
<path d="M235.17 143.916C236.983 139.092 241.095 133.999 244.014 130.899C246.933 127.8 244.713 124.322 243.672 118.839C242.631 113.356 246.112 111.149 247.942 109.641C249.771 108.134 245.385 104.251 249.24 96.882C253.095 89.5133 265.686 90.9726 266.18 91.7766C267.893 89.5093 270.357 87.8008 273.875 88.235C283.064 89.3646 292.423 94.4177 294.578 101.626C296.732 108.833 293.979 109.42 297.633 113.219C301.287 117.018 310.674 120.785 312.386 134.674C313.299 142.071 307.425 143.743 312.101 149.431C318.042 156.667 325.66 157.069 327.839 170.255C329.125 178.018 319.027 178.367 322.211 184.261C325.395 190.154 326.581 188.848 326.991 197.169C327.401 205.49 325.238 220.593 312.237 218.475C299.237 216.356 279.591 179.863 279.591 179.863C279.591 179.863 244.36 156.398 244.215 157.11C244.07 157.821 235.652 155.228 235.254 153.64C234.856 152.052 233.349 148.74 235.17 143.916Z" fill="url(#paint2_linear_187_2354)"/>
<path d="M223.206 135.032C223.206 135.032 219.99 128.881 221.598 120.423C222.181 117.364 223.882 110.944 224.537 108.411C224.612 108.106 224.578 107.783 224.441 107.5C224.304 107.217 224.072 106.99 223.785 106.86C222.764 106.364 221.595 106.261 220.502 106.571C219.41 106.881 218.469 107.581 217.86 108.54L214.375 114.26L197.579 100.982C197.117 100.621 196.54 100.437 195.954 100.463C195.368 100.49 194.811 100.725 194.383 101.127C194.165 101.334 193.991 101.583 193.872 101.86C193.753 102.136 193.691 102.434 193.691 102.735C193.691 103.036 193.753 103.334 193.872 103.61C193.991 103.887 194.165 104.136 194.383 104.343L199.927 109.65L199.553 109.794C199.083 109.964 198.652 110.226 198.286 110.567C197.92 110.907 197.627 111.318 197.424 111.775C197.221 112.232 197.113 112.725 197.105 113.224C197.098 113.724 197.192 114.22 197.382 114.683L197.535 115.04L196.622 115.209C196.122 115.288 195.643 115.467 195.214 115.736C194.785 116.005 194.414 116.357 194.125 116.772C193.835 117.187 193.632 117.656 193.528 118.152C193.424 118.647 193.421 119.159 193.519 119.655L192.855 120.077C192.325 120.409 191.887 120.869 191.582 121.415C191.277 121.961 191.115 122.575 191.111 123.201V124.363C191.111 124.363 190.307 128.881 195.131 134.26C199.955 139.639 206.347 147.333 206.347 147.333L223.206 135.032Z" fill="#DDBDFF"/>
<path d="M206.25 148.125L205.9 147.723C205.836 147.643 199.432 139.98 194.677 134.666C189.921 129.352 190.427 124.913 190.512 124.335V123.217C190.514 122.493 190.7 121.782 191.052 121.15C191.403 120.517 191.909 119.984 192.522 119.599L192.864 119.382C192.753 118.392 192.996 117.395 193.551 116.568C193.888 116.067 194.322 115.639 194.829 115.31C195.335 114.981 195.903 114.758 196.498 114.654L196.711 114.614C196.388 113.645 196.435 112.591 196.843 111.655C197.245 110.715 197.965 109.946 198.877 109.485L193.977 104.789C193.7 104.529 193.48 104.214 193.329 103.865C193.179 103.516 193.101 103.139 193.101 102.759C193.101 102.379 193.179 102.003 193.329 101.654C193.48 101.305 193.7 100.99 193.977 100.729C194.505 100.228 195.195 99.9336 195.922 99.8997C196.65 99.8657 197.365 100.094 197.937 100.544L214.218 113.428L217.357 108.271C218.043 107.189 219.101 106.397 220.332 106.044C221.563 105.691 222.88 105.803 224.035 106.357C224.441 106.538 224.772 106.855 224.97 107.253C225.168 107.652 225.221 108.107 225.12 108.54L224.823 109.682C224.079 112.54 222.696 117.866 222.193 120.516C220.646 128.656 223.709 134.686 223.741 134.746L223.97 135.189L223.568 135.486L206.25 148.125ZM196.067 101.047C195.591 101.042 195.131 101.222 194.785 101.549C194.619 101.7 194.487 101.884 194.396 102.089C194.305 102.293 194.259 102.515 194.259 102.739C194.259 102.963 194.305 103.185 194.396 103.39C194.487 103.595 194.619 103.778 194.785 103.929L201 109.875L199.77 110.345C199.36 110.496 198.984 110.729 198.667 111.029C198.35 111.33 198.097 111.692 197.925 112.094C197.765 112.467 197.683 112.869 197.683 113.276C197.683 113.682 197.765 114.084 197.925 114.457L198.351 115.483L196.743 115.78C196.302 115.856 195.88 116.02 195.504 116.264C195.129 116.507 194.806 116.824 194.556 117.195C194.326 117.533 194.168 117.915 194.091 118.317C194.013 118.718 194.018 119.131 194.106 119.531L194.19 119.933L193.185 120.576C192.737 120.855 192.367 121.242 192.109 121.703C191.851 122.163 191.714 122.681 191.71 123.209V124.475C191.71 124.515 191.038 128.805 195.581 133.882C199.71 138.493 205.076 144.873 206.483 146.549L222.515 134.851C220.602 130.259 220.098 125.202 221.068 120.323C221.578 117.633 222.917 112.488 223.717 109.412L224.015 108.275C224.057 108.1 224.036 107.916 223.956 107.755C223.876 107.594 223.741 107.466 223.576 107.394C222.683 106.963 221.662 106.873 220.707 107.144C219.752 107.414 218.929 108.025 218.395 108.862L214.572 115.145L197.257 101.445C196.919 101.177 196.498 101.037 196.067 101.047Z" fill="#CBA1F7"/>
<path d="M208.835 130.871C207.263 130.871 205.78 129.782 205.711 129.729C205.65 129.684 205.599 129.627 205.559 129.562C205.52 129.496 205.494 129.424 205.483 129.348C205.472 129.273 205.476 129.196 205.494 129.122C205.513 129.048 205.545 128.979 205.591 128.917C205.636 128.856 205.693 128.804 205.759 128.765C205.824 128.726 205.896 128.7 205.972 128.689C206.047 128.678 206.124 128.681 206.198 128.7C206.272 128.719 206.342 128.751 206.403 128.797C206.403 128.797 207.898 129.89 209.157 129.681C209.387 129.642 209.606 129.556 209.801 129.427C209.995 129.298 210.161 129.13 210.286 128.933C211.561 127.1 210.495 125.199 205.543 120.459C200.96 116.065 197.503 115.635 197.454 115.635C197.306 115.612 197.173 115.533 197.082 115.414C196.991 115.295 196.949 115.146 196.965 114.997C196.981 114.848 197.054 114.711 197.168 114.614C197.282 114.518 197.43 114.469 197.579 114.478C197.736 114.478 201.446 114.936 206.351 119.635C211.255 124.335 213.132 126.895 211.239 129.613C211.025 129.939 210.746 130.217 210.42 130.429C210.093 130.642 209.726 130.784 209.341 130.847C209.174 130.869 209.004 130.877 208.835 130.871Z" fill="#CBA1F7"/>
<path d="M212.256 125.496C210.929 125.496 209.808 124.351 209.76 124.29C209.698 124.238 209.647 124.172 209.612 124.099C209.577 124.026 209.557 123.946 209.555 123.864C209.552 123.783 209.567 123.702 209.598 123.626C209.628 123.551 209.675 123.483 209.733 123.426C209.792 123.37 209.862 123.326 209.939 123.299C210.015 123.271 210.097 123.259 210.178 123.265C210.259 123.271 210.338 123.293 210.41 123.331C210.482 123.37 210.545 123.422 210.596 123.486C210.845 123.744 211.649 124.395 212.365 124.323C212.58 124.286 212.783 124.2 212.959 124.07C213.135 123.941 213.278 123.773 213.378 123.579C213.78 122.932 211.408 118.811 207.187 115.089C204.909 113.144 202.393 111.494 199.702 110.18C199.626 110.152 199.557 110.109 199.499 110.053C199.441 109.997 199.395 109.93 199.364 109.855C199.334 109.781 199.319 109.701 199.32 109.62C199.322 109.54 199.341 109.46 199.375 109.387C199.409 109.314 199.458 109.249 199.518 109.196C199.579 109.142 199.65 109.102 199.726 109.078C199.803 109.053 199.884 109.045 199.964 109.054C200.044 109.062 200.122 109.087 200.192 109.127C202.991 110.48 205.601 112.19 207.959 114.216C211.303 117.167 215.504 122.425 214.354 124.206C214.164 124.551 213.895 124.846 213.568 125.068C213.242 125.289 212.868 125.431 212.477 125.48L212.256 125.496ZM204.582 134.268H204.381C202.552 134.135 200.699 132.258 199.468 130.65C199.386 130.528 199.354 130.379 199.377 130.233C199.4 130.088 199.478 129.956 199.594 129.866C199.71 129.775 199.856 129.732 200.003 129.744C200.15 129.757 200.286 129.825 200.385 129.934C201.896 131.868 203.384 133.018 204.461 133.094C204.66 133.111 204.86 133.084 205.047 133.014C205.234 132.945 205.403 132.835 205.543 132.692C206.793 131.486 205.309 128.672 201.121 124.302C197.004 119.997 193.579 120.234 193.547 120.238C193.393 120.253 193.239 120.205 193.12 120.106C193.001 120.008 192.926 119.866 192.912 119.712C192.897 119.558 192.945 119.404 193.044 119.285C193.142 119.166 193.284 119.091 193.438 119.076C193.595 119.076 197.418 118.751 201.961 123.498C205.008 126.686 208.795 131.197 206.343 133.548C205.874 134.012 205.241 134.27 204.582 134.268Z" fill="#CBA1F7"/>
<path d="M254.064 133.191L237.783 141.801C237.272 142.071 236.692 142.186 236.117 142.131C235.541 142.076 234.994 141.854 234.543 141.492L223.729 130.143L203.139 145.793L218.286 159.92C238.362 182.399 278.309 145.926 278.309 145.926L275.016 133.552C269.235 129.163 260.496 129.77 254.064 133.191Z" fill="#8130D5"/>
<path d="M278.586 198.15L270.341 212.964C257.447 236.132 252.799 262.992 257.159 289.147L265.002 336.221L206.226 323.075C206.226 323.075 206.194 260.412 211.701 245.316C220.799 220.392 241.417 182.789 255.314 179.316C269.055 175.879 278.586 198.15 278.586 198.15Z" fill="#824EB9"/>
<path d="M263.607 332.812C263.607 332.812 267.993 341.278 262.401 345.744C256.81 350.21 187.887 347.971 187.887 347.971C187.887 347.971 182.878 320.189 197.281 320.113C211.818 320.036 263.607 332.812 263.607 332.812Z" fill="#8108FF"/>
<path d="M211.05 332.233C210.96 332.23 210.872 332.209 210.791 332.172C210.709 332.134 210.636 332.081 210.575 332.016C210.514 331.95 210.467 331.873 210.436 331.788C210.405 331.704 210.391 331.615 210.395 331.525C210.309 327.856 209.314 324.265 207.5 321.073L209.185 321.323C211.906 326.693 211.766 331.344 211.758 331.586C211.748 331.765 211.669 331.933 211.536 332.054C211.404 332.175 211.229 332.239 211.05 332.233ZM218.571 331.763H218.471C218.308 331.758 218.151 331.696 218.03 331.587C217.908 331.478 217.83 331.329 217.808 331.168C217.808 331.103 217.004 325.057 214.278 322.513C214.169 322.405 214.099 322.263 214.081 322.111L216.055 322.456C218.443 325.58 219.134 330.749 219.162 330.991C219.175 331.08 219.169 331.171 219.146 331.259C219.123 331.346 219.083 331.428 219.028 331.5C218.973 331.572 218.904 331.632 218.826 331.677C218.748 331.722 218.661 331.751 218.571 331.763ZM225.2 331.465C225.021 331.457 224.851 331.378 224.729 331.245C224.607 331.113 224.543 330.937 224.549 330.758C224.549 330.733 224.593 328.265 221.466 323.98C221.412 323.903 221.375 323.817 221.355 323.726C221.335 323.635 221.333 323.541 221.349 323.449L222.985 323.763C226.008 328.141 225.92 330.713 225.912 330.826C225.907 330.915 225.885 331.002 225.847 331.082C225.809 331.162 225.755 331.234 225.689 331.293C225.623 331.353 225.546 331.398 225.462 331.428C225.378 331.457 225.289 331.47 225.2 331.465ZM264.785 342.355C264.329 343.696 263.49 344.874 262.373 345.744C256.769 350.206 187.859 347.971 187.859 347.971C187.455 345.516 187.196 343.04 187.083 340.554L264.785 342.355Z" fill="#8130D5"/>
<path d="M291.723 169.962C291.723 169.962 299.976 180.558 300.776 191.609C301.713 204.59 297.235 210.503 299.82 226.342L316.217 263.455L351.348 329.552L291.478 327.337C291.478 327.337 268.162 270.763 262.671 251.069C257.179 231.375 255.965 186.299 255.965 186.299L291.723 169.962Z" fill="#A671DE"/>
<path d="M351.786 329.769C351.786 329.769 357.201 337.612 352.188 342.749C347.175 347.887 278.546 354.351 278.546 354.351C278.546 354.351 270.076 327.417 284.359 325.532C298.799 323.61 351.786 329.769 351.786 329.769Z" fill="#8108FF"/>
<path d="M299.586 335.815C299.406 335.83 299.227 335.774 299.089 335.658C298.95 335.542 298.863 335.376 298.847 335.196C298.304 331.564 296.867 328.125 294.666 325.186L296.37 325.222C299.743 330.207 300.194 334.838 300.214 335.079C300.221 335.169 300.211 335.259 300.184 335.345C300.156 335.43 300.112 335.509 300.054 335.578C299.995 335.646 299.924 335.703 299.844 335.743C299.764 335.784 299.676 335.808 299.586 335.815ZM306.979 334.404H306.879C306.716 334.42 306.552 334.378 306.418 334.284C306.284 334.191 306.188 334.052 306.147 333.893C306.147 333.837 304.571 327.936 301.552 325.753C301.43 325.66 301.343 325.528 301.307 325.379L303.317 325.475C306.079 328.289 307.413 333.314 307.478 333.551C307.503 333.64 307.51 333.733 307.499 333.825C307.487 333.916 307.457 334.004 307.411 334.084C307.364 334.164 307.302 334.233 307.228 334.288C307.153 334.343 307.069 334.382 306.979 334.404ZM313.516 333.258C313.426 333.269 313.336 333.261 313.249 333.237C313.162 333.212 313.081 333.171 313.01 333.115C312.94 333.059 312.881 332.989 312.837 332.91C312.794 332.831 312.766 332.745 312.756 332.655C312.756 332.631 312.487 330.175 308.845 326.319C308.781 326.25 308.732 326.169 308.701 326.081C308.67 325.992 308.657 325.899 308.664 325.805L310.324 325.913C313.874 329.873 314.111 332.438 314.119 332.55C314.127 332.723 314.069 332.892 313.957 333.024C313.845 333.155 313.687 333.239 313.516 333.258ZM354.162 339.087C353.882 340.472 353.203 341.745 352.208 342.749C347.211 347.887 278.566 354.351 278.566 354.351C277.856 351.967 277.288 349.542 276.865 347.091L354.162 339.087Z" fill="#8130D5"/>
<path d="M281.131 127.836C281.131 127.836 265.634 127.772 262.639 129.147C257.228 131.627 247.202 148.262 247.202 153.074C247.278 156.173 248.07 159.212 249.517 161.954L244.5 187.039L288.113 185.109L281.131 127.836Z" fill="#9E51EF"/>
<path d="M213.796 164.462L230.306 164.514C231.6 164.514 232.316 163.461 231.914 162.151L231.512 160.848C231.288 160.191 230.875 159.615 230.325 159.192C229.775 158.768 229.113 158.517 228.42 158.468L211.91 158.42C210.616 158.42 209.9 159.473 210.322 160.78L210.724 162.086C210.948 162.739 211.359 163.312 211.904 163.734C212.45 164.156 213.108 164.409 213.796 164.462Z" fill="#8108FF"/>
<path d="M224.027 206.556L252.918 206.648C254.213 206.648 254.928 205.591 254.526 204.284L241.602 163.614C241.379 162.957 240.966 162.38 240.416 161.957C239.866 161.533 239.203 161.282 238.511 161.234L209.619 161.146C208.324 161.146 207.609 162.199 208.031 163.505L220.947 204.192C221.174 204.843 221.586 205.414 222.133 205.834C222.68 206.255 223.339 206.505 224.027 206.556Z" fill="url(#paint3_linear_187_2354)"/>
<path d="M221.02 206.556L249.911 206.648C251.206 206.648 251.921 205.591 251.519 204.284L238.579 163.614C238.356 162.957 237.943 162.38 237.393 161.957C236.843 161.533 236.18 161.282 235.488 161.234L206.596 161.146C205.301 161.146 204.586 162.199 205.008 163.505L217.924 204.18C218.15 204.836 218.564 205.411 219.114 205.834C219.665 206.256 220.327 206.507 221.02 206.556Z" fill="#CDA5F7"/>
<path d="M276.343 118.558C276.069 119.808 275.635 126.232 275.438 129.279C275.406 129.818 275.259 130.343 275.006 130.82C274.752 131.296 274.4 131.713 273.971 132.041C272.423 133.223 269.847 134.823 267.724 134.352C264.456 133.633 264.086 130.127 266.08 128.853C266.743 128.451 267.567 120.853 267.575 120.777L276.331 118.554L276.343 118.558Z" fill="#DDBDFF"/>
<path d="M270.727 96.0981C275.953 96.6729 279.784 102.317 280.033 109.288C280.436 109.24 280.843 109.26 281.239 109.348C283.346 109.814 284.648 112.017 284.154 114.273C283.659 116.528 281.545 117.983 279.442 117.517C279.204 117.465 278.973 117.388 278.751 117.288C276.616 122.916 272.162 126.634 267.463 126.132C261.477 125.476 257.36 118.224 258.269 109.935C259.177 101.646 264.745 95.4428 270.727 96.0981Z" fill="#DDBDFF"/>
<path d="M268.809 111.724C268.697 112.709 268.998 113.557 269.489 113.613C269.979 113.67 270.47 112.918 270.586 111.929C270.703 110.94 270.397 110.096 269.907 110.039C269.416 109.983 268.938 110.739 268.809 111.724ZM260.532 110.55C260.42 111.539 260.721 112.383 261.212 112.439C261.702 112.496 262.192 111.744 262.309 110.759C262.426 109.774 262.116 108.926 261.63 108.87C261.143 108.813 260.649 109.561 260.532 110.55Z" fill="#661AB5"/>
<path d="M265.031 119.289C264.81 119.295 264.589 119.279 264.371 119.241C264.198 119.208 264.035 119.134 263.895 119.026C263.755 118.917 263.643 118.778 263.567 118.618C263.31 118.092 263.398 117.368 263.833 116.467C264.333 115.235 264.704 113.953 264.942 112.644C264.952 112.592 264.972 112.541 265.001 112.496C265.03 112.451 265.068 112.412 265.112 112.382C265.157 112.352 265.206 112.33 265.259 112.319C265.311 112.308 265.366 112.307 265.418 112.317C265.471 112.327 265.522 112.347 265.567 112.376C265.612 112.405 265.651 112.443 265.681 112.487C265.711 112.531 265.733 112.581 265.744 112.634C265.755 112.686 265.756 112.74 265.746 112.793C265.495 114.171 265.099 115.519 264.564 116.813C264.134 117.706 264.235 118.108 264.299 118.24C264.319 118.286 264.35 118.326 264.389 118.357C264.429 118.388 264.475 118.408 264.524 118.417C265.219 118.461 265.916 118.438 266.606 118.349C266.66 118.343 266.715 118.348 266.767 118.363C266.82 118.379 266.868 118.404 266.911 118.438C266.953 118.472 266.988 118.515 267.014 118.562C267.04 118.61 267.057 118.663 267.063 118.717C267.068 118.771 267.064 118.825 267.048 118.878C267.033 118.93 267.007 118.979 266.973 119.021C266.939 119.063 266.897 119.099 266.849 119.125C266.801 119.151 266.749 119.167 266.695 119.173C266.526 119.209 265.69 119.289 265.031 119.289ZM267.201 123.064C267.012 123.064 266.822 123.049 266.635 123.02C266.58 123.013 266.527 122.995 266.48 122.966C266.433 122.938 266.392 122.9 266.36 122.855C266.328 122.81 266.305 122.759 266.294 122.705C266.282 122.651 266.282 122.596 266.293 122.542C266.301 122.488 266.319 122.436 266.347 122.389C266.376 122.343 266.413 122.303 266.458 122.271C266.502 122.24 266.552 122.217 266.605 122.206C266.659 122.194 266.714 122.194 266.767 122.204C268.431 122.477 270.462 121.038 270.482 121.026C270.526 120.994 270.576 120.972 270.628 120.959C270.681 120.947 270.736 120.945 270.79 120.954C270.843 120.963 270.895 120.982 270.941 121.01C270.987 121.039 271.027 121.077 271.059 121.121C271.09 121.165 271.113 121.215 271.125 121.267C271.138 121.32 271.14 121.375 271.131 121.429C271.122 121.482 271.103 121.533 271.074 121.58C271.046 121.626 271.008 121.666 270.964 121.697C270.88 121.758 269.038 123.064 267.201 123.064Z" fill="#CBA1F7"/>
<path d="M258.627 96.2107C260.761 93.7263 262.908 93.7625 266.317 94.076C268.536 94.2851 269.372 95.0288 269.654 95.7283C269.654 95.8368 269.617 95.9453 269.601 96.0539C269.479 96.7979 269.282 97.5278 269.014 98.2327L266.815 102.18C266.815 102.18 264.612 98.5945 262.795 99.4468C262.59 99.6638 262.393 99.8849 262.2 100.118C259.969 102.938 258.602 106.343 258.265 109.923C258.087 111.52 258.1 113.133 258.301 114.727C257.783 114.345 254.723 108.327 256.548 100.476C256.891 98.9086 257.603 97.4462 258.627 96.2107Z" fill="url(#paint4_linear_187_2354)"/>
<path d="M273.971 91.9052C276.126 92.1344 281.963 93.7424 283.977 94.5343C290.304 99.1332 284.781 109.075 281.886 108.926C278.502 108.749 277.903 111.475 277.903 111.475C277.903 111.475 275.406 104.641 272.741 101.204C270.076 97.7664 266.815 102.18 266.815 102.18C266.93 100.497 266.956 98.8091 266.892 97.1232C266.655 93.8509 266.872 91.1495 273.971 91.9052Z" fill="url(#paint5_linear_187_2354)"/>
<path d="M267.097 97.9995C267.047 98.0441 266.987 98.0763 266.922 98.0938C266.857 98.1112 266.789 98.1134 266.723 98.1C266.657 98.086 266.595 98.0554 266.544 98.0111C266.492 97.9668 266.453 97.9103 266.43 97.8468C266.176 97.1915 263.431 94.8318 261.336 95.2298C252.472 96.9182 252.565 103.615 252.621 107.619C252.641 109.159 252.657 110.273 252.183 110.835C248.356 115.193 249.944 118.835 251.954 123.446C252.959 125.754 254.06 128.294 254.534 131.213L254.422 131.273L253.783 131.631C253.352 128.736 252.247 126.188 251.194 123.776C249.152 119.088 247.387 115.04 251.56 110.289C251.825 109.987 251.809 108.854 251.793 107.652C251.736 103.668 251.636 96.2589 261.183 94.4378C263.394 94.0157 266.007 95.9493 266.9 97.091C269.244 95.1092 271.808 94.5383 274.538 95.3946C282.079 97.7704 290.566 103.792 291.39 111.394C291.739 114.658 290.988 117.147 290.373 119.145C289.645 121.525 289.122 123.245 290.461 125.279C291.221 126.429 292.873 127.354 294.754 128.419C299.112 130.871 305.082 134.232 304.523 143.47C304.342 146.489 302.831 148.989 301.492 151.192C299.683 154.179 298.119 156.76 299.884 159.98C301.408 162.73 303.627 164.378 305.777 165.974C309.395 168.663 313.138 171.441 312.985 179.384C312.913 183.135 309.749 186.05 306.955 188.63C304.041 191.316 301.524 193.631 302.417 196.377C303.136 198.604 304.209 199.862 305.231 201.084C306.839 202.97 308.35 204.751 307.703 209.579C307.697 209.633 307.68 209.685 307.653 209.733C307.627 209.78 307.591 209.822 307.547 209.855C307.504 209.888 307.455 209.912 307.402 209.925C307.349 209.938 307.294 209.941 307.241 209.932H307.204C307.102 209.913 307.011 209.854 306.951 209.768C306.891 209.683 306.866 209.577 306.883 209.474C307.482 205.012 306.211 203.517 304.603 201.627C303.562 200.421 302.384 199.022 301.613 196.638C300.559 193.39 303.385 190.789 306.376 188.031C309.19 185.451 312.073 182.781 312.137 179.384C312.282 171.867 308.873 169.334 305.263 166.653C303.044 165.005 300.748 163.3 299.14 160.394C297.13 156.776 298.891 153.853 300.748 150.778C302.099 148.555 303.494 146.252 303.663 143.438C304.189 134.714 298.714 131.631 294.312 129.155C292.322 128.037 290.606 127.068 289.733 125.75C288.182 123.394 288.813 121.328 289.545 118.916C290.164 116.906 290.863 114.594 290.529 111.495C289.75 104.259 281.545 98.494 274.252 96.1946C271.716 95.3544 269.304 95.9775 267.097 97.9995Z" fill="#661AB5"/>
<path d="M265.839 172.165C265.839 172.165 255.419 173.459 251.23 172.892C243.721 171.875 237.413 170.802 231.994 172.185C227.85 173.242 221.297 177.957 217.635 180.848C217.07 181.286 216.608 181.844 216.284 182.481C215.959 183.118 215.78 183.819 215.757 184.534C215.751 185.084 215.962 185.613 216.345 186.008C216.727 186.403 217.25 186.63 217.8 186.641L219.408 186.713L219.219 187.702C219.141 188.142 219.154 188.593 219.259 189.027C219.364 189.462 219.557 189.87 219.827 190.226C220.097 190.582 220.438 190.878 220.828 191.096C221.217 191.314 221.648 191.449 222.093 191.493L223.818 191.706L223.97 192.731C224.054 193.214 224.239 193.674 224.515 194.079C224.791 194.485 225.151 194.826 225.57 195.081C225.989 195.336 226.457 195.498 226.944 195.557C227.431 195.615 227.925 195.569 228.392 195.42L229.478 195.107L229.598 195.911C229.718 196.624 230.117 197.261 230.706 197.681C231.296 198.101 232.028 198.27 232.742 198.15C235.657 197.724 238.44 196.651 240.886 195.01L245.228 192.092L247.005 192.924C254.049 196.186 262.05 196.732 269.473 194.459L271.245 193.921L265.839 172.165Z" fill="#DDBDFF"/>
<path d="M232.304 198.765C231.514 198.776 230.746 198.503 230.141 197.995C229.536 197.487 229.134 196.779 229.007 195.999L228.983 195.85L228.537 195.979C227.966 196.148 227.365 196.193 226.775 196.109C226.186 196.025 225.621 195.815 225.12 195.493C224.655 195.197 224.258 194.805 223.957 194.343C223.656 193.882 223.458 193.36 223.375 192.815L223.291 192.228L222.009 192.072C221.471 192.008 220.951 191.834 220.483 191.563C220.014 191.291 219.606 190.927 219.283 190.492C218.979 190.08 218.764 189.61 218.652 189.111C218.54 188.612 218.533 188.095 218.632 187.593L218.696 187.264L217.763 187.223C217.06 187.209 216.391 186.916 215.904 186.408C215.416 185.901 215.15 185.221 215.162 184.518C215.188 183.718 215.389 182.933 215.751 182.22C216.114 181.506 216.629 180.881 217.261 180.389C220.107 178.146 227.222 172.8 231.837 171.622C234.125 171.035 236.661 170.838 239.877 170.999C240.024 171.016 240.159 171.088 240.255 171.201C240.35 171.313 240.399 171.458 240.392 171.606C240.385 171.754 240.322 171.893 240.216 171.996C240.11 172.099 239.969 172.158 239.821 172.161C236.754 172.008 234.318 172.193 232.147 172.747C227.62 173.901 220.175 179.581 218.001 181.302C217.503 181.689 217.097 182.18 216.811 182.742C216.525 183.303 216.365 183.92 216.344 184.55C216.344 184.948 216.501 185.329 216.78 185.612C217.059 185.895 217.438 186.056 217.836 186.062L220.111 186.162L219.794 187.81C219.724 188.158 219.729 188.517 219.806 188.863C219.884 189.209 220.033 189.535 220.244 189.82C220.471 190.129 220.759 190.387 221.09 190.578C221.422 190.77 221.789 190.891 222.169 190.934L224.332 191.195L224.549 192.663C224.604 193.043 224.74 193.406 224.948 193.729C225.156 194.052 225.431 194.325 225.755 194.532C226.116 194.76 226.521 194.91 226.944 194.969C227.367 195.029 227.798 194.998 228.207 194.878L229.94 194.379L230.153 195.846C230.251 196.407 230.568 196.906 231.034 197.233C231.5 197.56 232.077 197.689 232.637 197.591C235.465 197.176 238.165 196.137 240.541 194.548L245.156 191.444L247.23 192.417C254.142 195.627 261.999 196.164 269.284 193.925L271.057 193.386C271.129 193.364 271.206 193.356 271.282 193.363C271.358 193.37 271.431 193.392 271.499 193.428C271.566 193.463 271.626 193.512 271.675 193.571C271.723 193.629 271.76 193.697 271.782 193.77C271.805 193.843 271.812 193.919 271.805 193.995C271.798 194.071 271.776 194.145 271.74 194.212C271.705 194.28 271.656 194.339 271.598 194.388C271.539 194.437 271.471 194.473 271.398 194.496L269.621 195.038C262.062 197.361 253.911 196.803 246.74 193.471L245.256 192.779L241.2 195.497C238.68 197.179 235.817 198.278 232.818 198.713C232.648 198.742 232.476 198.76 232.304 198.765Z" fill="#CBA1F7"/>
<path d="M219.404 187.296C219.33 187.295 219.258 187.28 219.19 187.252C219.119 187.224 219.054 187.182 218.999 187.129C218.944 187.076 218.9 187.012 218.87 186.942C218.84 186.871 218.824 186.796 218.823 186.719C218.822 186.643 218.836 186.567 218.865 186.496C220.26 183.006 231.685 178.018 232.983 177.463C233.123 177.413 233.276 177.419 233.412 177.478C233.547 177.538 233.655 177.647 233.714 177.783C233.772 177.919 233.776 178.072 233.726 178.211C233.675 178.351 233.573 178.465 233.441 178.532C230.036 179.991 220.979 184.349 219.946 186.93C219.902 187.038 219.827 187.13 219.731 187.196C219.634 187.261 219.52 187.296 219.404 187.296ZM222.949 192.18C222.837 192.176 222.728 192.14 222.636 192.076C222.543 192.012 222.472 191.922 222.429 191.818C222.387 191.714 222.375 191.6 222.396 191.489C222.417 191.379 222.47 191.277 222.547 191.195C225.861 187.784 229.883 185.142 234.33 183.457L236.714 182.548C236.854 182.51 237.004 182.526 237.133 182.593C237.263 182.66 237.363 182.772 237.413 182.909C237.464 183.046 237.461 183.196 237.406 183.331C237.351 183.466 237.247 183.575 237.116 183.638L234.732 184.542C230.446 186.168 226.569 188.715 223.375 192.003C223.32 192.06 223.254 192.105 223.181 192.136C223.107 192.166 223.029 192.181 222.949 192.18ZM229.614 195.862C229.478 195.861 229.346 195.812 229.24 195.726C229.127 195.627 229.056 195.488 229.043 195.338C229.029 195.188 229.074 195.039 229.168 194.922C233.421 189.836 239.496 188.253 239.753 188.188C239.902 188.15 240.06 188.173 240.193 188.252C240.325 188.331 240.42 188.459 240.458 188.608C240.496 188.758 240.473 188.916 240.394 189.048C240.316 189.18 240.187 189.276 240.038 189.314C239.982 189.314 234.064 190.882 230.061 195.669C230.005 195.732 229.936 195.782 229.859 195.815C229.782 195.849 229.698 195.865 229.614 195.862Z" fill="#CBA1F7"/>
<path d="M282.039 127.836C283.648 127.824 285.234 128.22 286.648 128.987C288.062 129.754 289.259 130.867 290.127 132.222L305.403 156.643C310.135 164.205 307.526 174.014 299.59 178.484L267.398 198.262L257.208 167.582L281.959 158.517L273.456 140.6C270.618 134.61 275.181 127.836 282.039 127.836Z" fill="#9E51EF"/>
<path d="M267.398 199.066C267.226 199.069 267.058 199.015 266.918 198.915C266.779 198.814 266.675 198.672 266.623 198.508L256.428 167.827C256.393 167.727 256.378 167.621 256.384 167.515C256.391 167.41 256.418 167.306 256.464 167.211C256.51 167.116 256.575 167.03 256.654 166.96C256.734 166.89 256.826 166.836 256.926 166.802L280.837 158.042L272.717 140.941C272.624 140.745 272.612 140.52 272.685 140.315C272.757 140.11 272.909 139.943 273.105 139.85C273.301 139.756 273.526 139.745 273.731 139.818C273.935 139.89 274.103 140.042 274.196 140.238L282.698 158.155C282.745 158.258 282.769 158.371 282.769 158.484C282.769 158.598 282.745 158.71 282.698 158.814C282.656 158.92 282.592 159.015 282.51 159.094C282.429 159.173 282.331 159.234 282.224 159.272L258.217 168.064L268.158 197.993C268.202 198.116 268.215 198.247 268.197 198.376C268.178 198.505 268.129 198.628 268.052 198.734C267.976 198.839 267.875 198.925 267.758 198.983C267.642 199.041 267.513 199.069 267.382 199.066H267.398Z" fill="#8130D5"/>
<path d="M328.068 197.957C326.721 196.859 325.327 195.726 324.117 193.495C322.621 190.729 324.957 187.617 327.425 184.325C329.893 181.033 332.675 177.326 332.016 173.334C330.617 164.868 326.299 162.75 321.725 160.507C319.124 159.232 316.43 157.91 314.268 155.281C311.727 152.193 312.885 149.13 314.231 145.584C315.216 142.983 316.334 140.029 315.936 136.789C314.73 126.871 307.711 124.475 302.601 122.719C300.37 121.955 298.441 121.295 297.4 120.214C295.562 118.305 295.792 116.363 296.089 113.678C296.346 111.434 296.664 108.645 295.647 105.236C293.283 97.3242 283.076 92.5967 274.598 91.5676C270.936 91.1173 268.516 91.7927 266.832 93.7544C265.724 92.98 264.453 92.4698 263.117 92.263C260.938 91.861 257.622 91.9897 254.185 94.6991C249.497 98.4016 248.701 101.698 248.81 109.127C248.81 109.81 247.628 110.594 246.37 111.426C244.09 112.93 240.967 114.992 241.658 118.63C242.095 120.561 242.664 122.459 243.363 124.31C244.754 128.298 246.177 132.419 244.368 134.36C244.006 134.762 243.604 135.128 243.162 135.534C241.711 136.909 239.998 138.537 238.792 141.279L239.998 140.636C241.083 138.626 242.462 137.323 243.721 136.133C244.155 135.731 244.569 135.329 244.927 134.927C247.097 132.632 245.574 128.27 244.098 124.049C243.413 122.236 242.854 120.377 242.426 118.485C241.835 115.39 244.464 113.661 246.78 112.13C248.299 111.125 249.594 110.261 249.594 109.127C249.489 101.891 250.205 98.8759 254.655 95.3624C257.835 92.8499 260.898 92.7374 262.904 93.0871C264.91 93.4369 266.317 94.3615 266.47 94.6027C266.505 94.6602 266.554 94.708 266.612 94.7417C266.67 94.7755 266.736 94.794 266.803 94.7956C266.87 94.8002 266.938 94.7879 266.999 94.7598C267.06 94.7317 267.113 94.6887 267.153 94.6348C268.665 92.6248 270.847 91.9575 274.453 92.3997C282.674 93.4127 292.543 97.9433 294.811 105.501C295.78 108.737 295.482 111.322 295.213 113.601C294.907 116.295 294.642 118.618 296.748 120.805C297.93 122.035 299.944 122.723 302.276 123.523C307.454 125.295 313.898 127.502 315.055 136.905C315.433 139.944 314.4 142.67 313.399 145.307C312.024 148.925 310.726 152.366 313.572 155.823C315.847 158.593 318.621 159.956 321.307 161.27C325.68 163.417 329.813 165.443 331.143 173.491C331.746 177.129 329.186 180.546 326.721 183.847C324.084 187.36 321.596 190.681 323.345 193.897C324.635 196.272 326.159 197.515 327.501 198.604C329.592 200.305 331.244 201.651 331.485 206.532C331.483 206.626 331.515 206.718 331.575 206.792C331.634 206.865 331.718 206.916 331.811 206.934C331.847 206.938 331.883 206.938 331.919 206.934C331.975 206.934 332.03 206.922 332.081 206.9C332.132 206.878 332.178 206.845 332.216 206.805C332.253 206.764 332.282 206.716 332.3 206.663C332.319 206.611 332.326 206.555 332.321 206.499C332.096 201.233 330.138 199.641 328.068 197.957Z" fill="#661AB5"/>
<defs>
<linearGradient id="paint0_linear_187_2354" x1="213.313" y1="81.2764" x2="203.468" y2="98.3252" gradientUnits="userSpaceOnUse">
<stop stop-color="#CFA7F9"/>
<stop offset="1" stop-color="#9E51EE"/>
</linearGradient>
<linearGradient id="paint1_linear_187_2354" x1="178.827" y1="174.271" x2="195.571" y2="257.315" gradientUnits="userSpaceOnUse">
<stop stop-color="#9E51EF"/>
<stop offset="0.25" stop-color="#9A4DEA"/>
<stop offset="0.53" stop-color="#8D40DD"/>
<stop offset="0.82" stop-color="#772BC7"/>
<stop offset="1" stop-color="#661AB5"/>
</linearGradient>
<linearGradient id="paint2_linear_187_2354" x1="247.793" y1="95.8112" x2="324.416" y2="214.229" gradientUnits="userSpaceOnUse">
<stop stop-color="#8E22FF"/>
<stop offset="0.28" stop-color="#7039A9"/>
<stop offset="0.52" stop-color="#4B2672"/>
<stop offset="0.73" stop-color="#2E134B"/>
<stop offset="0.9" stop-color="#1B0533"/>
<stop offset="1" stop-color="#15002A"/>
</linearGradient>
<linearGradient id="paint3_linear_187_2354" x1="215.854" y1="157.21" x2="246.663" y2="210.572" gradientUnits="userSpaceOnUse">
<stop stop-color="#8E22FF"/>
<stop offset="0.28" stop-color="#7039A9"/>
<stop offset="0.52" stop-color="#4B2672"/>
<stop offset="0.73" stop-color="#2E134B"/>
<stop offset="0.9" stop-color="#1B0533"/>
<stop offset="1" stop-color="#15002A"/>
</linearGradient>
<linearGradient id="paint4_linear_187_2354" x1="266.873" y1="87.3982" x2="251.467" y2="159.292" gradientUnits="userSpaceOnUse">
<stop stop-color="#9E51EF"/>
<stop offset="0.31" stop-color="#8F49D9"/>
<stop offset="0.74" stop-color="#8041C1"/>
<stop offset="1" stop-color="#7A3EB8"/>
</linearGradient>
<linearGradient id="paint5_linear_187_2354" x1="275.534" y1="88.7433" x2="282.036" y2="108.86" gradientUnits="userSpaceOnUse">
<stop stop-color="#9E51EF"/>
<stop offset="0.31" stop-color="#8F49D9"/>
<stop offset="0.74" stop-color="#8041C1"/>
<stop offset="1" stop-color="#7A3EB8"/>
</linearGradient>
</defs>
</svg>
