<svg width="50" height="50" viewBox="0 0 50 50" fill="none" xmlns="http://www.w3.org/2000/svg">
<ellipse cx="24.9527" cy="25.1213" rx="24.2744" ry="24.5146" fill="#A57AFF"/>
<path d="M33.8148 20.9157C33.8148 15.7941 29.8341 11.6423 24.9237 11.6423C20.0133 11.6423 16.0327 15.7942 16.0327 20.9157C16.0327 23.2317 16.8468 25.3493 18.1927 26.9744H18.1926L20.1374 30.5346C20.6453 31.4844 20.8339 32.0976 21.6851 32.0976H28.0263C28.8776 32.0976 29.128 31.4518 29.574 30.5346L31.6549 26.9744H31.6548C33.0007 25.3493 33.8148 23.2317 33.8148 20.9157Z" fill="white"/>
<path d="M16.5827 22.045C16.5827 16.7525 20.5327 12.3783 25.6605 11.6772C25.4046 11.6541 25.1479 11.6425 24.8911 11.6423C19.9807 11.6423 16 15.7942 16 20.9157C16 22.6011 16.4315 24.1811 17.1849 25.543C16.795 24.4492 16.5827 23.2718 16.5827 22.045Z" fill="#F3F3F3"/>
<path d="M33.8148 20.9355C33.8148 19.101 33.304 17.3911 32.4228 15.9518C32.6114 16.7034 32.7069 17.4758 32.7068 18.2512C32.7068 24.3449 26.8644 29.3076 19.566 29.5086L20.1374 30.5545C20.6453 31.5043 20.8338 32.1175 21.685 32.1175H28.0263C28.8775 32.1175 29.128 31.4717 29.574 30.5545L31.6548 26.9943H31.6547C33.0006 25.3691 33.8148 23.2515 33.8148 20.9355Z" fill="#CFB8FF"/>
<path d="M28.6617 22.507C28.6703 22.4993 28.6789 22.4923 28.6875 22.4839C28.8485 22.3283 28.9811 22.0802 28.8701 21.85C28.415 20.9063 27.0233 20.6069 26.0093 20.9194C25.9579 20.9352 25.9081 20.9524 25.8598 20.971C25.3074 20.6453 24.6216 20.567 24.0112 20.7628C23.9389 20.7859 23.868 20.8131 23.7987 20.8441C23.4646 20.647 23.0737 20.5486 22.6842 20.5866C21.869 20.6663 21.1606 21.334 21.0202 22.1473L20.956 22.1874C21.5115 23.0941 22.9738 25.6919 23.0675 26.8098C23.1856 28.22 23.0676 32.0481 23.0664 32.0866L23.7592 32.1087C23.7642 31.9499 23.8797 28.2014 23.7581 26.7507C23.7039 26.1039 23.3121 25.073 22.5933 23.6867C22.2579 23.0396 21.9322 22.4716 21.735 22.1363C21.8714 21.6903 22.2902 21.3285 22.7509 21.2835C22.8912 21.2698 23.0336 21.2857 23.1698 21.326C23.1185 21.3923 23.0737 21.4634 23.0358 21.5383C22.802 22.0012 22.8997 22.5824 23.263 22.8903C23.4781 23.0726 23.7908 23.1398 24.079 23.0653C24.3475 22.996 24.555 22.8178 24.6483 22.5765C24.7321 22.3596 24.725 22.1092 24.6271 21.8323C24.5704 21.6731 24.4916 21.5227 24.3931 21.3858C24.6547 21.3349 24.9247 21.3498 25.1793 21.4292C25.0802 21.5444 25.0044 21.6726 24.9546 21.8116C24.8481 22.1092 24.8952 22.4629 25.0775 22.7347C25.2347 22.9689 25.4736 23.1082 25.7331 23.1168C25.7417 23.1171 25.7504 23.1173 25.7591 23.1173C25.9864 23.1173 26.2021 23.0186 26.3692 22.8374C26.5654 22.6247 26.6653 22.3293 26.6363 22.0473C26.6179 21.868 26.5547 21.6927 26.4531 21.53C27.1599 21.4003 27.8513 21.6415 28.1504 22.0076C27.9699 22.3109 27.5992 22.9474 27.2159 23.6869C26.4972 25.0732 26.1052 26.1041 26.0511 26.7508C25.9295 28.2015 26.0451 31.95 26.05 32.1088L26.7428 32.0867C26.7416 32.0482 26.6236 28.2204 26.7417 26.8099C26.826 25.8035 28.0191 23.5986 28.6617 22.507ZM24.0024 22.322C23.9863 22.3637 23.9255 22.3824 23.9073 22.3871C23.8351 22.4057 23.7533 22.3921 23.7085 22.3541C23.5921 22.2555 23.5668 22.0275 23.6532 21.8564C23.6815 21.8013 23.7175 21.7505 23.76 21.7057C23.8531 21.8123 23.9271 21.9347 23.9742 22.0678C24.0126 22.1764 24.0229 22.2691 24.0024 22.322ZM25.8619 22.3601C25.8417 22.382 25.8004 22.418 25.7557 22.4171C25.7077 22.4155 25.6697 22.3693 25.6513 22.3419C25.5939 22.2563 25.5755 22.1361 25.6064 22.0496C25.6421 21.9499 25.711 21.8683 25.7915 21.8026C25.881 21.9047 25.9359 22.0146 25.9467 22.1196C25.9551 22.1996 25.9209 22.2962 25.8619 22.3601Z" fill="#AF8AFF"/>
<path d="M28.3166 33.6786H21.4981C21.1169 33.6786 20.8049 33.9937 20.8049 34.3787V34.7846C20.8049 35.1696 21.1169 35.4846 21.4981 35.4846H23.7003C23.0437 35.7313 22.3504 36.318 22.3504 36.9983V37.2713C22.8774 37.8695 23.3681 38.9095 24.303 38.9095H25.5675C26.3039 38.9095 26.827 38.1066 27.4643 37.2713V36.9983C27.4643 36.318 26.8028 35.7313 26.1618 35.4846H28.3166C28.6979 35.4846 29.0098 35.1696 29.0098 34.7846V34.3787C29.0098 33.9937 28.6979 33.6786 28.3166 33.6786Z" fill="#6B83A5"/>
<path d="M28.8061 33.6787H21.0086C20.6274 33.6787 20.3154 33.3636 20.3154 32.9786V32.5727C20.3154 32.1877 20.6274 31.8727 21.0086 31.8727H28.8061C29.1874 31.8727 29.4993 32.1877 29.4993 32.5727V32.9786C29.4993 33.3636 29.1874 33.6787 28.8061 33.6787ZM28.4014 36.5906V36.1847C28.4014 35.7997 28.0894 35.4847 27.7082 35.4847H22.1066C21.7253 35.4847 21.4134 35.7997 21.4134 36.1847V36.5906C21.4134 36.9756 21.7253 37.2907 22.1066 37.2907H27.7082C28.0894 37.2907 28.4014 36.9756 28.4014 36.5906Z" fill="#ABBDDB"/>
</svg>
