<svg width="49" height="49" viewBox="0 0 49 49" fill="none" xmlns="http://www.w3.org/2000/svg">
<circle cx="24.2744" cy="24.2744" r="24.2744" fill="#CFA7F9"/>
<path d="M27.6805 13H21.3256C20.596 13 20.004 13.7047 20.0035 14.5779L20 18.4221C20 19.2935 20.5905 20 21.32 20H27.6749C28.4045 20 28.9965 19.2953 28.997 18.4221L29 14.5779C29.001 13.7065 28.4101 13 27.6805 13ZM28.193 17.8213C28.193 18.4937 27.7376 19.0387 27.1725 19.0387H21.824C21.2609 19.0387 20.8045 18.4937 20.8055 17.8207V15.1781C20.8055 14.5057 21.2608 13.9602 21.826 13.9602H27.1765C27.7397 13.9602 28.1955 14.5051 28.195 15.1775L28.193 17.8213Z" fill="#661AB5"/>
<path d="M35.7931 17H13.2229C12.5556 17 12.014 17.5654 12.0135 18.262L12 32.738C12 33.4351 12.5396 34 13.2069 34H35.7776C36.4444 34 36.986 33.4351 36.9865 32.738L37 18.262C37.001 17.5629 36.4604 17 35.7931 17Z" fill="#8130D5"/>
<path d="M35.7925 18H13.21C12.5423 18 12.001 18.5711 12 19.2753V21.6584C12 22.7081 12.623 23.6446 13.5594 23.9978C20.6193 26.6674 28.3762 26.6674 35.4361 23.9978C36.3729 23.6441 36.999 22.7075 37 21.6579V19.2748C37.0005 18.5711 36.4602 18 35.7925 18Z" fill="#661AB5"/>
<path d="M35.7925 17H13.21C12.5424 17 12.0005 17.5716 12 18.2758V20.6587C12 21.7083 12.6231 22.6448 13.5594 22.9979C20.6193 25.6674 28.3762 25.6674 35.4361 22.9979C36.3729 22.6443 36.999 21.7077 37 20.6582V18.2752C37.001 17.569 36.4602 17 35.7925 17Z" fill="url(#paint0_linear_231_7)"/>
<path d="M27.1201 23H22.8814C22.6444 23.0034 22.4185 23.1003 22.2532 23.2693C22.0879 23.4384 21.9969 23.6658 22.0001 23.9015V26.098C21.9982 26.2148 22.0195 26.3309 22.0628 26.4395C22.1061 26.5482 22.1705 26.6473 22.2524 26.7311C22.3343 26.8149 22.432 26.8818 22.54 26.9279C22.6479 26.9741 22.764 26.9986 22.8814 27H27.1181C27.3552 26.9965 27.5812 26.8995 27.7465 26.7304C27.9118 26.5613 28.003 26.3338 27.9999 26.098V23.9015C28.0017 23.7849 27.9803 23.669 27.9371 23.5605C27.8938 23.4521 27.8295 23.3531 27.7478 23.2694C27.6661 23.1857 27.5686 23.1188 27.4609 23.0726C27.3532 23.0263 27.2374 23.0017 27.1201 23Z" fill="#661AB5"/>
<path d="M26.4142 24H23.5887C23.4306 24.0018 23.2799 24.0502 23.1696 24.1347C23.0593 24.2191 22.9983 24.3328 23.0001 24.4507V25.5493C22.9977 25.667 23.058 25.7806 23.1679 25.8651C23.2777 25.9496 23.4281 25.9981 23.5858 26H26.4118C26.5699 25.9981 26.7205 25.9496 26.8308 25.8651C26.941 25.7806 27.0018 25.6669 26.9999 25.5489V24.4504C27.0021 24.3327 26.9416 24.2193 26.8318 24.1349C26.722 24.0504 26.5718 24.0019 26.4142 24Z" fill="#8555E9"/>
<path d="M35.8512 21.9352C35.7824 21.9771 35.6983 21.9998 35.6117 22C35.5602 22 35.5093 21.9919 35.4618 21.9762C35.4143 21.9605 35.3711 21.9375 35.3348 21.9085C35.2984 21.8795 35.2697 21.845 35.2501 21.8071C35.2305 21.7693 35.2204 21.7287 35.2206 21.6877V19.2943C35.2215 19.2046 35.2 19.1157 35.1575 19.0327C35.1149 18.9496 35.0521 18.8741 34.9726 18.8106C34.8993 18.7514 34.8118 18.7044 34.7154 18.6724C34.619 18.6404 34.5156 18.624 34.4112 18.6242C34.3582 18.6263 34.3052 18.6198 34.2554 18.605C34.2056 18.5903 34.1601 18.5676 34.1217 18.5385C34.0832 18.5093 34.0526 18.4742 34.0317 18.4353C34.0108 18.3965 34 18.3546 34 18.3123C34 18.27 34.0108 18.2282 34.0317 18.1893C34.0526 18.1504 34.0832 18.1153 34.1217 18.0861C34.1601 18.057 34.2056 18.0343 34.2554 18.0196C34.3052 18.0048 34.3582 17.9983 34.4112 18.0004C34.6182 18.0008 34.8231 18.0339 35.0139 18.0979C35.2047 18.1619 35.3777 18.2554 35.5228 18.3731C35.6751 18.4945 35.7957 18.6387 35.8777 18.7975C35.9596 18.9563 36.0011 19.1264 36 19.2981V21.6922C35.9997 21.739 35.9862 21.7851 35.9604 21.8272C35.9346 21.8692 35.8973 21.9062 35.8512 21.9352Z" fill="#A650FF"/>
<defs>
<linearGradient id="paint0_linear_231_7" x1="23.5651" y1="14.9702" x2="25.756" y2="25.567" gradientUnits="userSpaceOnUse">
<stop stop-color="#9E51EF"/>
<stop offset="0.25" stop-color="#9A4DEA"/>
<stop offset="0.53" stop-color="#8D40DD"/>
<stop offset="0.82" stop-color="#772BC7"/>
<stop offset="1" stop-color="#661AB5"/>
</linearGradient>
</defs>
</svg>
